<svg xmlns="http://www.w3.org/2000/svg" xmlns:xlink="http://www.w3.org/1999/xlink" version="1.1" width="319.5" height="171" viewBox="0 0 319.5 171">
<g>
<path d="M.426 0H319.074V171H.426Z" fill="#ffffff"/>
<path d="M24.848 8.969H296.895V66.367H24.848Z" fill="#d3d3d3"/>
<path stroke-width=".747377" stroke-linecap="butt" stroke-miterlimit="4" stroke-linejoin="miter" fill="none" stroke="#d3d3d3" d="M24.848 8.969H296.895V66.367H24.848Z"/>
<path d="M129.355 18.965 130.285 18.887C130.332 19.262 130.434 19.566 130.598 19.809 130.754 20.051 131.008 20.246 131.348 20.387 131.691 20.535 132.074 20.609 132.5 20.609 132.875 20.609 133.211 20.555 133.504 20.441 133.789 20.332 134.008 20.18 134.148 19.98 134.289 19.785 134.359 19.57 134.363 19.34 134.359 19.105 134.293 18.902 134.156 18.723 134.02 18.551 133.793 18.402 133.48 18.281 133.281 18.207 132.832 18.086 132.145 17.914 131.457 17.754 130.977 17.598 130.703 17.449 130.34 17.262 130.074 17.031 129.902 16.754 129.723 16.477 129.637 16.164 129.637 15.82 129.637 15.441 129.746 15.09 129.961 14.762 130.176 14.434 130.488 14.184 130.902 14.012 131.312 13.844 131.77 13.758 132.277 13.754 132.824 13.758 133.316 13.848 133.742 14.023 134.168 14.203 134.488 14.465 134.723 14.812 134.949 15.164 135.074 15.559 135.09 15.992L134.141 16.066C134.086 15.59 133.914 15.238 133.621 14.992 133.328 14.75 132.891 14.629 132.316 14.629 131.715 14.629 131.277 14.738 131.008 14.957 130.73 15.184 130.59 15.445 130.594 15.754 130.59 16.027 130.688 16.242 130.887 16.414 131.074 16.59 131.574 16.773 132.379 16.949 133.184 17.137 133.734 17.293 134.039 17.43 134.469 17.629 134.793 17.883 135.004 18.191 135.207 18.504 135.309 18.859 135.312 19.262 135.309 19.66 135.199 20.035 134.973 20.383 134.742 20.738 134.418 21.012 133.988 21.207 133.566 21.402 133.082 21.496 132.547 21.5 131.867 21.496 131.297 21.402 130.844 21.207 130.379 21.008 130.023 20.711 129.766 20.312 129.5 19.918 129.367 19.469 129.355 18.965ZM138.559 20.551 138.691 21.359C138.43 21.418 138.199 21.441 137.996 21.441 137.664 21.441 137.402 21.391 137.219 21.285 137.035 21.18 136.902 21.043 136.832 20.871 136.754 20.699 136.719 20.336 136.719 19.785V16.66H136.047V15.949H136.719V14.602L137.633 14.051V15.949H138.559V16.66H137.633V19.832C137.629 20.102 137.645 20.27 137.68 20.34 137.711 20.418 137.766 20.477 137.84 20.52 137.91 20.562 138.02 20.582 138.156 20.582 138.254 20.582 138.391 20.574 138.559 20.551ZM142.996 20.703C142.66 20.996 142.328 21.199 142.012 21.316 141.699 21.438 141.359 21.496 141.004 21.496 140.402 21.496 139.945 21.352 139.625 21.062 139.309 20.77 139.145 20.395 139.148 19.941 139.145 19.68 139.207 19.438 139.332 19.215 139.449 18.996 139.605 18.82 139.801 18.684 139.996 18.559 140.219 18.453 140.465 18.383 140.645 18.34 140.918 18.293 141.281 18.246 142.023 18.16 142.57 18.051 142.922 17.926 142.922 17.805 142.922 17.727 142.926 17.691 142.922 17.316 142.836 17.051 142.668 16.898 142.43 16.691 142.078 16.59 141.617 16.586 141.184 16.59 140.863 16.664 140.66 16.812 140.453 16.965 140.301 17.234 140.207 17.621L139.309 17.496C139.387 17.113 139.52 16.801 139.707 16.566 139.895 16.328 140.164 16.145 140.52 16.02 140.875 15.895 141.281 15.828 141.754 15.824 142.215 15.828 142.59 15.887 142.879 15.988 143.168 16.102 143.383 16.238 143.523 16.402 143.652 16.566 143.75 16.777 143.809 17.023 143.832 17.184 143.848 17.465 143.852 17.871V19.098C143.848 19.957 143.867 20.496 143.91 20.723 143.949 20.949 144.027 21.164 144.145 21.371H143.184C143.086 21.184 143.023 20.961 142.996 20.703ZM142.922 18.648C142.59 18.785 142.082 18.902 141.418 18.996 141.043 19.051 140.773 19.113 140.617 19.18 140.457 19.25 140.336 19.352 140.254 19.48 140.168 19.613 140.129 19.758 140.129 19.918 140.129 20.164 140.223 20.367 140.406 20.527 140.59 20.695 140.863 20.777 141.219 20.773 141.574 20.777 141.891 20.699 142.168 20.543 142.441 20.391 142.645 20.18 142.777 19.906 142.871 19.699 142.918 19.395 142.922 18.988ZM147.285 20.551 147.422 21.359C147.16 21.418 146.93 21.441 146.727 21.441 146.391 21.441 146.133 21.391 145.949 21.285 145.762 21.18 145.633 21.043 145.559 20.871 145.48 20.699 145.449 20.336 145.449 19.785V16.66H144.773V15.949H145.449V14.602L146.363 14.051V15.949H147.285V16.66H146.363V19.832C146.359 20.102 146.371 20.27 146.41 20.34 146.438 20.418 146.492 20.477 146.57 20.52 146.645 20.562 146.746 20.582 146.887 20.582 146.98 20.582 147.117 20.574 147.285 20.551ZM151.898 19.625 152.848 19.742C152.699 20.297 152.418 20.73 152.012 21.039 151.609 21.344 151.094 21.496 150.465 21.496 149.668 21.496 149.039 21.254 148.574 20.762 148.105 20.277 147.871 19.59 147.875 18.703 147.871 17.793 148.109 17.086 148.582 16.582 149.051 16.082 149.66 15.828 150.41 15.824 151.137 15.828 151.73 16.078 152.188 16.566 152.648 17.062 152.875 17.758 152.879 18.648 152.875 18.703 152.875 18.785 152.875 18.895H148.828C148.859 19.492 149.031 19.949 149.336 20.27 149.637 20.582 150.016 20.742 150.465 20.738 150.801 20.742 151.094 20.652 151.332 20.473 151.57 20.297 151.758 20.016 151.898 19.625ZM148.879 18.137H151.91C151.871 17.688 151.754 17.344 151.562 17.109 151.266 16.762 150.887 16.582 150.422 16.578 150 16.582 149.645 16.727 149.359 17.004 149.066 17.293 148.906 17.668 148.879 18.137ZM156.91 23.453V15.949H157.75V16.652C157.941 16.379 158.164 16.172 158.418 16.035 158.664 15.898 158.965 15.828 159.324 15.824 159.781 15.828 160.191 15.949 160.547 16.18 160.902 16.422 161.168 16.758 161.348 17.191 161.527 17.629 161.621 18.102 161.621 18.621 161.621 19.176 161.52 19.676 161.32 20.121 161.121 20.562 160.832 20.906 160.453 21.141 160.074 21.379 159.672 21.496 159.258 21.496 158.949 21.496 158.672 21.43 158.434 21.301 158.184 21.172 157.984 21.012 157.828 20.812V23.453ZM157.746 18.688C157.746 19.391 157.883 19.906 158.168 20.242 158.449 20.574 158.789 20.742 159.191 20.738 159.598 20.742 159.949 20.57 160.246 20.223 160.531 19.879 160.68 19.34 160.684 18.613 160.68 17.926 160.535 17.41 160.258 17.059 159.969 16.719 159.629 16.547 159.234 16.543 158.84 16.547 158.496 16.73 158.195 17.09 157.895 17.461 157.746 17.992 157.746 18.688ZM162.723 21.371V15.949H163.551V16.77C163.758 16.387 163.949 16.133 164.133 16.012 164.309 15.891 164.508 15.828 164.723 15.824 165.031 15.828 165.348 15.93 165.668 16.121L165.352 16.973C165.125 16.844 164.902 16.777 164.676 16.777 164.48 16.777 164.297 16.836 164.137 16.953 163.973 17.078 163.859 17.246 163.793 17.461 163.691 17.789 163.641 18.145 163.645 18.535V21.371ZM165.871 18.66C165.871 17.656 166.152 16.914 166.711 16.426 167.176 16.031 167.746 15.828 168.418 15.824 169.164 15.828 169.773 16.074 170.246 16.559 170.719 17.047 170.957 17.723 170.957 18.582 170.957 19.285 170.852 19.832 170.641 20.23 170.43 20.629 170.125 20.941 169.727 21.16 169.324 21.383 168.887 21.496 168.418 21.496 167.656 21.496 167.039 21.254 166.574 20.766 166.105 20.281 165.871 19.578 165.871 18.66ZM166.82 18.66C166.816 19.359 166.969 19.879 167.27 20.223 167.574 20.57 167.953 20.742 168.418 20.738 168.871 20.742 169.25 20.57 169.551 20.223 169.855 19.875 170.012 19.344 170.012 18.629 170.012 17.957 169.855 17.453 169.551 17.105 169.246 16.762 168.867 16.59 168.418 16.586 167.953 16.59 167.574 16.762 167.27 17.102 166.969 17.449 166.816 17.969 166.82 18.66ZM175.574 19.387 176.48 19.504C176.375 20.129 176.125 20.617 175.719 20.969 175.312 21.32 174.812 21.496 174.219 21.496 173.477 21.496 172.879 21.254 172.43 20.77 171.98 20.285 171.75 19.59 171.754 18.68 171.75 18.098 171.848 17.582 172.043 17.141 172.238 16.707 172.531 16.379 172.926 16.152 173.324 15.941 173.758 15.828 174.227 15.824 174.816 15.828 175.297 15.98 175.668 16.27 176.043 16.574 176.281 16.996 176.391 17.543L175.496 17.68C175.41 17.316 175.262 17.043 175.047 16.855 174.824 16.676 174.566 16.582 174.262 16.578 173.793 16.582 173.418 16.75 173.129 17.078 172.844 17.414 172.695 17.938 172.699 18.652 172.695 19.387 172.836 19.918 173.113 20.246 173.395 20.578 173.758 20.742 174.211 20.738 174.566 20.742 174.871 20.629 175.113 20.41 175.355 20.188 175.508 19.848 175.574 19.387ZM180.98 19.625 181.93 19.742C181.777 20.297 181.5 20.73 181.098 21.039 180.688 21.344 180.172 21.496 179.543 21.496 178.75 21.496 178.121 21.254 177.656 20.762 177.188 20.277 176.957 19.59 176.957 18.703 176.957 17.793 177.191 17.086 177.66 16.582 178.129 16.082 178.738 15.828 179.492 15.824 180.215 15.828 180.809 16.078 181.27 16.566 181.73 17.062 181.957 17.758 181.961 18.648 181.957 18.703 181.957 18.785 181.957 18.895H177.91C177.941 19.492 178.109 19.949 178.414 20.27 178.715 20.582 179.094 20.742 179.547 20.738 179.883 20.742 180.172 20.652 180.41 20.473 180.652 20.297 180.84 20.016 180.98 19.625ZM177.957 18.137H180.988C180.949 17.688 180.832 17.344 180.641 17.109 180.348 16.762 179.969 16.582 179.504 16.578 179.082 16.582 178.723 16.727 178.438 17.004 178.145 17.293 177.988 17.668 177.957 18.137ZM182.719 19.754 183.629 19.609C183.676 19.977 183.816 20.258 184.055 20.449 184.285 20.645 184.613 20.742 185.035 20.738 185.453 20.742 185.766 20.656 185.973 20.48 186.176 20.312 186.277 20.109 186.277 19.875 186.277 19.668 186.188 19.504 186.008 19.387 185.879 19.305 185.566 19.199 185.066 19.074 184.395 18.906 183.926 18.754 183.668 18.629 183.402 18.512 183.207 18.34 183.074 18.117 182.934 17.902 182.871 17.656 182.875 17.387 182.871 17.148 182.926 16.926 183.035 16.715 183.145 16.512 183.297 16.34 183.488 16.199 183.629 16.102 183.824 16.012 184.074 15.938 184.32 15.867 184.586 15.828 184.871 15.824 185.293 15.828 185.668 15.891 185.992 16.012 186.309 16.133 186.543 16.301 186.703 16.508 186.855 16.719 186.965 16.996 187.023 17.348L186.121 17.469C186.078 17.195 185.957 16.973 185.766 16.816 185.566 16.66 185.293 16.582 184.938 16.578 184.516 16.582 184.211 16.652 184.031 16.789 183.848 16.934 183.754 17.094 183.758 17.277 183.754 17.402 183.793 17.512 183.871 17.602 183.941 17.703 184.059 17.785 184.223 17.844 184.316 17.883 184.586 17.961 185.039 18.082 185.688 18.258 186.145 18.398 186.398 18.512 186.656 18.621 186.859 18.781 187.004 18.992 187.148 19.207 187.223 19.465 187.223 19.777 187.223 20.09 187.129 20.375 186.957 20.645 186.777 20.918 186.52 21.125 186.184 21.273 185.844 21.422 185.461 21.496 185.039 21.496 184.332 21.496 183.793 21.348 183.426 21.059 183.051 20.766 182.816 20.328 182.719 19.754ZM187.949 19.754 188.859 19.609C188.906 19.977 189.051 20.258 189.285 20.449 189.52 20.645 189.844 20.742 190.266 20.738 190.684 20.742 190.996 20.656 191.207 20.48 191.406 20.312 191.508 20.109 191.512 19.875 191.508 19.668 191.418 19.504 191.238 19.387 191.113 19.305 190.801 19.199 190.301 19.074 189.625 18.906 189.16 18.754 188.898 18.629 188.637 18.512 188.438 18.34 188.305 18.117 188.168 17.902 188.102 17.656 188.105 17.387 188.102 17.148 188.156 16.926 188.27 16.715 188.379 16.512 188.527 16.34 188.723 16.199 188.859 16.102 189.055 16.012 189.309 15.938 189.555 15.867 189.816 15.828 190.102 15.824 190.523 15.828 190.898 15.891 191.223 16.012 191.539 16.133 191.777 16.301 191.934 16.508 192.086 16.719 192.191 16.996 192.254 17.348L191.352 17.469C191.309 17.195 191.191 16.973 190.996 16.816 190.801 16.66 190.523 16.582 190.168 16.578 189.746 16.582 189.441 16.652 189.262 16.789 189.078 16.934 188.988 17.094 188.992 17.277 188.988 17.402 189.027 17.512 189.105 17.602 189.176 17.703 189.293 17.785 189.457 17.844 189.547 17.883 189.816 17.961 190.27 18.082 190.918 18.258 191.371 18.398 191.629 18.512 191.887 18.621 192.09 18.781 192.234 18.992 192.379 19.207 192.453 19.465 192.457 19.777 192.453 20.09 192.363 20.375 192.188 20.645 192.008 20.918 191.75 21.125 191.414 21.273 191.078 21.422 190.691 21.496 190.27 21.496 189.559 21.496 189.023 21.348 188.656 21.059 188.285 20.766 188.047 20.328 187.949 19.754ZM187.949 19.754"/>
<path stroke-width=".747377" stroke-linecap="butt" stroke-miterlimit="4" stroke-linejoin="miter" fill="none" stroke="#000000" d="M80.93 100.746C80.93 108.176 67.531 114.199 51.004 114.199 34.48 114.199 21.086 108.176 21.086 100.746 21.086 93.316 34.48 87.293 51.004 87.293 67.531 87.293 80.93 93.316 80.93 100.746ZM80.93 100.746"/>
<path d="M42.195 103.883V103.137L45.652 99.172C45.254 99.195 44.91 99.207 44.613 99.207H42.402V98.461H46.832V99.066L43.898 102.512 43.332 103.137C43.738 103.109 44.129 103.098 44.488 103.094H46.996V103.883ZM49.895 105.75C49.645 105.82 49.406 105.855 49.188 105.859 48.441 105.855 48.066 105.441 48.066 104.609V102.488H47.629V101.957H48.066V100.859H48.707V101.957H49.895V102.488H48.707V104.309C48.707 104.68 48.738 104.93 48.801 105.055 48.879 105.215 49.059 105.297 49.336 105.297 49.504 105.297 49.68 105.254 49.859 105.168H49.895ZM51.004 101.809H55.129V102.289H51.004ZM57.195 103.301H59.363V103.883H56.305V103.324C56.418 103.219 56.586 103.07 56.801 102.879 57.973 101.84 58.559 101.164 58.559 100.84 58.559 100.617 58.469 100.438 58.293 100.297 58.113 100.164 57.883 100.094 57.598 100.09 57.418 100.094 57.219 100.121 57.016 100.18 56.805 100.238 56.582 100.332 56.34 100.449V99.816C56.598 99.723 56.84 99.652 57.07 99.605 57.297 99.559 57.508 99.535 57.699 99.535 58.195 99.535 58.59 99.645 58.887 99.871 59.184 100.098 59.328 100.391 59.328 100.758 59.328 101.23 58.766 101.953 57.637 102.918 57.449 103.082 57.301 103.215 57.195 103.301ZM57.195 103.301"/>
<path stroke-width=".747377" stroke-linecap="butt" stroke-miterlimit="4" stroke-linejoin="miter" fill="none" stroke="#000000" d="M77.805 154.559C77.805 161.988 61.121 168.012 40.543 168.012 19.965 168.012 3.285 161.988 3.285 154.559 3.285 147.129 19.965 141.105 40.543 141.105 61.121 141.105 77.805 147.129 77.805 154.559ZM77.805 154.559"/>
<path d="M32.887 159.785 32.785 158.922C32.98 158.973 33.16 159 33.312 159.004 33.512 159 33.676 158.965 33.801 158.902 33.918 158.832 34.023 158.738 34.105 158.617 34.16 158.523 34.254 158.293 34.383 157.93 34.402 157.879 34.426 157.805 34.465 157.707L32.41 152.27H33.398L34.527 155.414C34.668 155.812 34.801 156.23 34.922 156.668 35.023 156.25 35.148 155.836 35.297 155.434L36.461 152.27H37.379L35.316 157.789C35.09 158.383 34.918 158.793 34.801 159.02 34.633 159.324 34.445 159.543 34.238 159.684 34.027 159.824 33.77 159.895 33.477 159.895 33.301 159.895 33.102 159.855 32.887 159.785ZM38.625 154.023H38V153.309H38.625ZM38.625 158.574C38.625 159.02 38.562 159.332 38.441 159.516 38.293 159.742 38.043 159.859 37.699 159.863 37.539 159.859 37.379 159.836 37.215 159.793L37.332 159.262C37.469 159.301 37.566 159.316 37.625 159.316 37.801 159.316 37.914 159.227 37.965 159.043 37.988 158.965 37.996 158.805 38 158.559V154.703H38.625ZM39.836 155.617H43.957V156.102H39.836ZM46.027 157.113H48.191V157.695H45.137V157.137C45.25 157.031 45.418 156.883 45.633 156.688 46.801 155.652 47.391 154.973 47.391 154.652 47.391 154.43 47.301 154.246 47.125 154.105 46.941 153.973 46.715 153.902 46.426 153.898 46.246 153.902 46.051 153.934 45.848 153.988 45.637 154.051 45.41 154.141 45.168 154.258V153.629C45.426 153.535 45.676 153.465 45.902 153.418 46.125 153.371 46.336 153.344 46.531 153.344 47.023 153.344 47.418 153.457 47.715 153.684 48.012 153.906 48.16 154.199 48.16 154.57 48.16 155.043 47.598 155.762 46.473 156.73 46.277 156.895 46.129 157.027 46.027 157.113ZM46.027 157.113"/>
<path stroke-width=".747377" stroke-linecap="butt" stroke-miterlimit="4" stroke-linejoin="miter" fill="none" stroke="#000000" d="M48.367 114.324C47.246 120.078 45.918 126.922 44.676 133.32"/>
<path d="M47.215 133.961 43.219 140.797 42.078 132.961ZM47.215 133.961"/>
<path stroke-width=".747377" stroke-linecap="butt" stroke-miterlimit="4" stroke-linejoin="miter" fill="none" stroke="#000000" d="M47.215 133.961 43.219 140.797 42.078 132.961ZM47.215 133.961"/>
<path stroke-width=".747377" stroke-linecap="butt" stroke-miterlimit="4" stroke-linejoin="miter" fill="none" stroke="#000000" d="M160.898 100.746C160.898 108.176 147.5 114.199 130.977 114.199 114.449 114.199 101.055 108.176 101.055 100.746 101.055 93.316 114.449 87.293 130.977 87.293 147.5 87.293 160.898 93.316 160.898 100.746ZM160.898 100.746"/>
<path d="M122.164 103.883V103.137L125.621 99.172C125.227 99.195 124.879 99.207 124.582 99.207H122.371V98.461H126.805V99.066L123.867 102.512 123.301 103.137C123.707 103.109 124.098 103.098 124.457 103.094H126.965V103.883ZM129.863 105.75C129.613 105.82 129.379 105.855 129.156 105.859 128.41 105.855 128.035 105.441 128.035 104.609V102.488H127.602V101.957H128.035V100.859H128.676V101.957H129.863V102.488H128.676V104.309C128.676 104.68 128.707 104.93 128.77 105.055 128.848 105.215 129.027 105.297 129.309 105.297 129.473 105.297 129.648 105.254 129.828 105.168H129.863ZM130.973 101.809H135.098V102.289H130.973ZM136.594 103.324H137.637V100.199L136.496 100.41V99.816L137.672 99.617H138.371V103.324H139.422V103.883H136.594ZM136.594 103.324"/>
<path stroke-width=".747377" stroke-linecap="butt" stroke-miterlimit="4" stroke-linejoin="miter" fill="none" stroke="#000000" d="M165.246 154.559C165.246 161.988 148.562 168.012 127.984 168.012 107.41 168.012 90.73 161.988 90.73 154.559 90.73 147.129 107.41 141.105 127.984 141.105 148.562 141.105 165.246 147.129 165.246 154.559ZM165.246 154.559"/>
<path d="M120.328 159.785 120.23 158.922C120.426 158.973 120.602 159 120.754 159.004 120.957 159 121.117 158.965 121.242 158.902 121.363 158.832 121.465 158.738 121.547 158.617 121.602 158.523 121.695 158.293 121.828 157.93 121.848 157.879 121.871 157.805 121.91 157.707L119.852 152.27H120.84L121.969 155.414C122.113 155.812 122.246 156.23 122.363 156.668 122.465 156.25 122.594 155.836 122.742 155.434L123.902 152.27H124.82L122.762 157.789C122.535 158.383 122.363 158.793 122.242 159.02 122.074 159.324 121.891 159.543 121.68 159.684 121.469 159.824 121.215 159.895 120.922 159.895 120.742 159.895 120.543 159.855 120.328 159.785ZM126.07 154.023H125.441V153.309H126.07ZM126.07 158.574C126.07 159.02 126.008 159.332 125.887 159.516 125.734 159.742 125.484 159.859 125.145 159.863 124.98 159.859 124.82 159.836 124.656 159.793L124.777 159.262C124.91 159.301 125.008 159.316 125.07 159.316 125.246 159.316 125.355 159.227 125.41 159.043 125.43 158.965 125.441 158.805 125.441 158.559V154.703H126.07ZM127.277 155.617H131.398V156.102H127.277ZM132.895 157.137H133.941V154.012L132.801 154.223V153.629L133.973 153.43H134.676V157.137H135.723V157.695H132.895ZM132.895 157.137"/>
<path stroke-width=".747377" stroke-linecap="butt" stroke-miterlimit="4" stroke-linejoin="miter" fill="none" stroke="#000000" d="M130.223 114.324C129.902 120.078 129.52 126.922 129.168 133.32"/>
<path d="M131.777 133.48 128.75 140.797 126.555 133.191ZM131.777 133.48"/>
<path stroke-width=".747377" stroke-linecap="butt" stroke-miterlimit="4" stroke-linejoin="miter" fill="none" stroke="#000000" d="M131.777 133.48 128.75 140.797 126.555 133.191ZM131.777 133.48"/>
<path stroke-width=".747377" stroke-linecap="butt" stroke-miterlimit="4" stroke-linejoin="miter" fill="none" stroke="#000000" d="M220.66 100.746C220.66 108.176 211.625 114.199 200.48 114.199 189.336 114.199 180.305 108.176 180.305 100.746 180.305 93.316 189.336 87.293 200.48 87.293 211.625 87.293 220.66 93.316 220.66 100.746ZM220.66 100.746"/>
<path d="M196.527 103.883V103.137L199.984 99.172C199.59 99.195 199.246 99.207 198.945 99.207H196.734V98.461H201.168V99.066L198.23 102.512 197.664 103.137C198.07 103.109 198.461 103.098 198.824 103.094H201.332V103.883ZM204.23 105.75C203.977 105.82 203.742 105.855 203.52 105.859 202.773 105.855 202.398 105.441 202.402 104.609V102.488H201.965V101.957H202.402V100.859H203.043V101.957H204.23V102.488H203.043V104.309C203.039 104.68 203.07 104.93 203.137 105.055 203.211 105.215 203.391 105.297 203.672 105.297 203.836 105.297 204.012 105.254 204.191 105.168H204.23ZM204.23 105.75"/>
<path stroke-width=".747377" stroke-linecap="butt" stroke-miterlimit="4" stroke-linejoin="miter" fill="none" stroke="#000000" d="M228.621 154.559C228.621 161.988 217.363 168.012 203.473 168.012 189.582 168.012 178.324 161.988 178.324 154.559 178.324 147.129 189.582 141.105 203.473 141.105 217.363 141.105 228.621 147.129 228.621 154.559ZM228.621 154.559"/>
<path d="M200.672 159.789 200.57 158.926C200.77 158.977 200.945 159.004 201.098 159.004 201.297 159.004 201.461 158.969 201.586 158.902 201.707 158.836 201.809 158.742 201.891 158.621 201.945 158.527 202.039 158.293 202.168 157.934 202.188 157.879 202.215 157.809 202.25 157.711L200.195 152.273H201.184L202.312 155.418C202.457 155.816 202.59 156.234 202.707 156.672 202.809 156.254 202.934 155.84 203.082 155.438L204.246 152.273H205.164L203.102 157.793C202.879 158.387 202.707 158.797 202.586 159.02 202.418 159.324 202.23 159.547 202.023 159.688 201.812 159.824 201.559 159.895 201.262 159.898 201.086 159.895 200.887 159.859 200.672 159.789ZM206.41 154.027H205.785V153.309H206.41ZM206.41 158.578C206.41 159.02 206.348 159.332 206.23 159.52 206.078 159.746 205.828 159.863 205.484 159.863 205.324 159.863 205.164 159.84 205 159.797L205.121 159.266C205.254 159.301 205.352 159.32 205.414 159.32 205.59 159.32 205.699 159.23 205.754 159.047 205.773 158.969 205.785 158.809 205.785 158.562V154.707H206.41ZM206.41 158.578"/>
<path stroke-width=".747377" stroke-linecap="butt" stroke-miterlimit="4" stroke-linejoin="miter" fill="none" stroke="#000000" d="M201.238 114.324C201.555 120.078 201.938 126.922 202.293 133.32"/>
<path d="M204.906 133.191 202.707 140.797 199.68 133.48ZM204.906 133.191"/>
<path stroke-width=".747377" stroke-linecap="butt" stroke-miterlimit="4" stroke-linejoin="miter" fill="none" stroke="#000000" d="M204.906 133.191 202.707 140.797 199.68 133.48ZM204.906 133.191"/>
<path stroke-width=".747377" stroke-linecap="butt" stroke-miterlimit="4" stroke-linejoin="miter" fill="none" stroke="#000000" d="M302.898 100.746C302.898 108.176 289.504 114.199 272.98 114.199 256.453 114.199 243.055 108.176 243.055 100.746 243.055 93.316 256.453 87.293 272.98 87.293 289.504 87.293 302.898 93.316 302.898 100.746ZM302.898 100.746"/>
<path d="M264.168 103.883V103.137L267.621 99.172C267.227 99.195 266.883 99.207 266.582 99.207H264.371V98.461H268.809V99.066L265.871 102.512 265.301 103.137C265.707 103.109 266.098 103.098 266.461 103.094H268.969V103.883ZM271.867 105.75C271.613 105.82 271.379 105.855 271.156 105.859 270.41 105.855 270.035 105.441 270.039 104.609V102.488H269.605V101.957H270.039V100.859H270.68V101.957H271.867V102.488H270.68V104.309C270.676 104.68 270.707 104.93 270.773 105.055 270.848 105.215 271.027 105.297 271.309 105.297 271.473 105.297 271.648 105.254 271.832 105.168H271.867ZM275.305 100.215V101.809H277.098V102.289H275.305V103.883H274.766V102.289H272.977V101.809H274.766V100.215ZM278.598 103.324H279.637V100.199L278.5 100.41V99.816L279.676 99.617H280.375V103.324H281.418V103.883H278.598ZM278.598 103.324"/>
<path stroke-width=".747377" stroke-linecap="butt" stroke-miterlimit="4" stroke-linejoin="miter" fill="none" stroke="#000000" d="M316.215 154.559C316.215 161.988 299.535 168.012 278.957 168.012 258.379 168.012 241.699 161.988 241.699 154.559 241.699 147.129 258.379 141.105 278.957 141.105 299.535 141.105 316.215 147.129 316.215 154.559ZM316.215 154.559"/>
<path d="M271.301 159.785 271.199 158.922C271.395 158.973 271.57 159 271.727 159.004 271.926 159 272.09 158.965 272.215 158.902 272.332 158.832 272.434 158.738 272.516 158.617 272.574 158.523 272.668 158.293 272.797 157.93 272.816 157.879 272.84 157.805 272.879 157.707L270.82 152.27H271.809L272.941 155.414C273.082 155.812 273.215 156.23 273.332 156.668 273.438 156.25 273.562 155.836 273.711 155.434L274.871 152.27H275.789L273.73 157.789C273.504 158.383 273.332 158.793 273.211 159.02 273.047 159.324 272.859 159.543 272.648 159.684 272.438 159.824 272.184 159.895 271.895 159.895 271.711 159.895 271.516 159.855 271.301 159.785ZM277.039 154.023H276.414V153.309H277.039ZM277.039 158.574C277.039 159.02 276.98 159.332 276.859 159.516 276.703 159.742 276.453 159.859 276.113 159.863 275.949 159.859 275.789 159.836 275.625 159.793L275.746 159.262C275.879 159.301 275.977 159.316 276.043 159.316 276.215 159.316 276.328 159.227 276.379 159.043 276.398 158.965 276.41 158.805 276.414 158.559V154.703H277.039ZM280.574 154.023V155.617H282.371V156.102H280.574V157.695H280.039V156.102H278.246V155.617H280.039V154.023ZM283.871 157.137H284.91V154.012L283.773 154.223V153.629L284.945 153.43H285.645V157.137H286.691V157.695H283.871ZM283.871 157.137"/>
<path stroke-width=".747377" stroke-linecap="butt" stroke-miterlimit="4" stroke-linejoin="miter" fill="none" stroke="#000000" d="M274.488 114.324C275.125 120.078 275.887 126.922 276.598 133.32"/>
<path d="M279.203 133.078 277.43 140.797 274 133.66ZM279.203 133.078"/>
<path stroke-width=".747377" stroke-linecap="butt" stroke-miterlimit="4" stroke-linejoin="miter" fill="none" stroke="#000000" d="M279.203 133.078 277.43 140.797 274 133.66ZM279.203 133.078"/>
<path stroke-width=".747377" stroke-linecap="butt" stroke-miterlimit="4" stroke-linejoin="miter" fill="none" stroke="#000000" d="M90.645 46.938C90.645 54.367 77.25 60.387 60.723 60.387 44.195 60.387 30.801 54.367 30.801 46.938 30.801 39.508 44.195 33.484 60.723 33.484 77.25 33.484 90.645 39.508 90.645 46.938ZM90.645 46.938"/>
<path d="M52.027 48.453 52.941 48.309C52.988 48.68 53.129 48.957 53.367 49.152 53.598 49.348 53.926 49.445 54.344 49.441 54.766 49.445 55.078 49.359 55.285 49.184 55.484 49.012 55.59 48.809 55.59 48.578 55.59 48.371 55.496 48.207 55.316 48.086 55.191 48.004 54.879 47.902 54.379 47.773 53.703 47.605 53.238 47.457 52.977 47.332 52.715 47.207 52.52 47.039 52.387 46.82 52.246 46.602 52.18 46.355 52.184 46.09 52.18 45.848 52.238 45.629 52.348 45.418 52.457 45.215 52.609 45.043 52.801 44.902 52.941 44.801 53.137 44.715 53.387 44.637 53.629 44.566 53.898 44.527 54.184 44.527 54.605 44.527 54.98 44.59 55.301 44.711 55.621 44.836 55.855 45.004 56.012 45.211 56.164 45.418 56.273 45.699 56.332 46.051L55.434 46.172C55.387 45.895 55.27 45.676 55.078 45.516 54.879 45.359 54.605 45.285 54.25 45.281 53.824 45.285 53.52 45.352 53.344 45.488 53.16 45.633 53.066 45.797 53.07 45.98 53.066 46.105 53.105 46.211 53.184 46.301 53.254 46.402 53.371 46.484 53.535 46.547 53.625 46.586 53.898 46.664 54.348 46.785 55 46.961 55.453 47.098 55.711 47.207 55.965 47.32 56.168 47.484 56.316 47.695 56.461 47.906 56.535 48.168 56.535 48.48 56.535 48.789 56.441 49.078 56.27 49.348 56.086 49.617 55.832 49.828 55.496 49.973 55.152 50.125 54.773 50.199 54.348 50.199 53.641 50.199 53.105 50.051 52.734 49.758 52.363 49.469 52.129 49.031 52.027 48.453ZM59.609 51.941C59.359 52.012 59.125 52.043 58.902 52.047 58.152 52.043 57.777 51.629 57.781 50.797V48.68H57.348V48.145H57.781V47.047H58.426V48.145H59.609V48.68H58.426V50.496C58.426 50.871 58.457 51.121 58.52 51.242 58.594 51.402 58.773 51.484 59.055 51.484 59.223 51.484 59.395 51.441 59.574 51.355H59.609ZM60.723 47.996H64.844V48.48H60.723ZM66.91 49.492H69.078V50.074H66.02V49.516C66.137 49.41 66.301 49.262 66.52 49.066 67.688 48.027 68.277 47.352 68.277 47.027 68.277 46.809 68.184 46.625 68.012 46.484 67.828 46.352 67.598 46.281 67.312 46.277 67.129 46.281 66.934 46.309 66.73 46.367 66.52 46.426 66.297 46.52 66.051 46.637V46.008C66.312 45.914 66.559 45.844 66.789 45.793 67.012 45.746 67.223 45.723 67.418 45.723 67.91 45.723 68.305 45.836 68.602 46.059 68.898 46.285 69.047 46.578 69.047 46.949 69.047 47.418 68.484 48.141 67.355 49.105 67.164 49.273 67.012 49.402 66.91 49.492ZM66.91 49.492"/>
<path stroke-width=".747377" stroke-linecap="butt" stroke-miterlimit="4" stroke-linejoin="miter" fill="none" stroke="#000000" d="M58.27 60.512C57.23 66.27 55.996 73.113 54.84 79.508"/>
<path d="M57.395 80.094 53.492 86.984 52.246 79.168ZM57.395 80.094"/>
<path stroke-width=".747377" stroke-linecap="butt" stroke-miterlimit="4" stroke-linejoin="miter" fill="none" stroke="#000000" d="M57.395 80.094 53.492 86.984 52.246 79.168ZM57.395 80.094"/>
<path stroke-width=".747377" stroke-linecap="butt" stroke-miterlimit="4" stroke-linejoin="miter" fill="none" stroke="#000000" d="M163.887 46.938C163.887 54.367 150.492 60.387 133.965 60.387 117.438 60.387 104.043 54.367 104.043 46.938 104.043 39.508 117.438 33.484 133.965 33.484 150.492 33.484 163.887 39.508 163.887 46.938ZM163.887 46.938"/>
<path d="M125.27 48.453 126.184 48.309C126.23 48.68 126.371 48.957 126.609 49.152 126.84 49.348 127.168 49.445 127.59 49.441 128.008 49.445 128.32 49.359 128.527 49.184 128.727 49.012 128.832 48.809 128.832 48.578 128.832 48.371 128.738 48.207 128.562 48.086 128.434 48.004 128.121 47.902 127.621 47.773 126.945 47.605 126.48 47.457 126.219 47.332 125.957 47.207 125.762 47.039 125.629 46.82 125.488 46.602 125.422 46.355 125.426 46.09 125.422 45.848 125.48 45.629 125.59 45.418 125.699 45.215 125.852 45.043 126.043 44.902 126.184 44.801 126.379 44.715 126.629 44.637 126.875 44.566 127.141 44.527 127.426 44.527 127.848 44.527 128.223 44.59 128.547 44.711 128.863 44.836 129.098 45.004 129.258 45.211 129.41 45.418 129.516 45.699 129.574 46.051L128.676 46.172C128.629 45.895 128.512 45.676 128.32 45.516 128.121 45.359 127.848 45.285 127.492 45.281 127.066 45.285 126.766 45.352 126.586 45.488 126.402 45.633 126.309 45.797 126.312 45.98 126.309 46.105 126.348 46.211 126.426 46.301 126.496 46.402 126.613 46.484 126.777 46.547 126.871 46.586 127.141 46.664 127.594 46.785 128.242 46.961 128.695 47.098 128.953 47.207 129.211 47.32 129.414 47.484 129.559 47.695 129.703 47.906 129.777 48.168 129.777 48.48 129.777 48.789 129.684 49.078 129.512 49.348 129.332 49.617 129.074 49.828 128.738 49.973 128.398 50.125 128.016 50.199 127.594 50.199 126.887 50.199 126.348 50.051 125.98 49.758 125.605 49.469 125.371 49.031 125.27 48.453ZM132.852 51.941C132.605 52.012 132.367 52.043 132.145 52.047 131.395 52.043 131.023 51.629 131.027 50.797V48.68H130.59V48.145H131.027V47.047H131.668V48.145H132.852V48.68H131.668V50.496C131.668 50.871 131.699 51.121 131.762 51.242 131.84 51.402 132.016 51.484 132.297 51.484 132.465 51.484 132.637 51.441 132.816 51.355H132.852ZM133.965 47.996H138.086V48.48H133.965ZM139.582 49.516H140.625V46.387L139.484 46.598V46.008L140.66 45.809H141.359V49.516H142.41V50.074H139.582ZM139.582 49.516"/>
<path stroke-width=".747377" stroke-linecap="butt" stroke-miterlimit="4" stroke-linejoin="miter" fill="none" stroke="#000000" d="M90.766 46.938C92.617 46.938 94.469 46.938 96.316 46.938"/>
<path d="M96.453 44.32 103.926 46.938 96.453 49.551ZM96.453 44.32"/>
<path stroke-width=".747377" stroke-linecap="butt" stroke-miterlimit="4" stroke-linejoin="miter" fill="none" stroke="#000000" d="M96.453 44.32 103.926 46.938 96.453 49.551ZM96.453 44.32"/>
<path stroke-width=".747377" stroke-linecap="butt" stroke-miterlimit="4" stroke-linejoin="miter" fill="none" stroke="#000000" d="M133.211 60.512C132.891 66.27 132.512 73.113 132.156 79.508"/>
<path d="M134.77 79.668 131.742 86.984 129.543 79.379ZM134.77 79.668"/>
<path stroke-width=".747377" stroke-linecap="butt" stroke-miterlimit="4" stroke-linejoin="miter" fill="none" stroke="#000000" d="M134.77 79.668 131.742 86.984 129.543 79.379ZM134.77 79.668"/>
<path stroke-width=".747377" stroke-linecap="butt" stroke-miterlimit="4" stroke-linejoin="miter" fill="none" stroke="#000000" d="M217.672 46.938C217.672 54.367 208.637 60.387 197.492 60.387 186.348 60.387 177.312 54.367 177.312 46.938 177.312 39.508 186.348 33.484 197.492 33.484 208.637 33.484 217.672 39.508 217.672 46.938ZM217.672 46.938"/>
<path d="M193.66 48.453 194.566 48.309C194.613 48.68 194.758 48.957 194.996 49.152 195.227 49.348 195.551 49.445 195.973 49.441 196.391 49.445 196.707 49.359 196.914 49.184 197.113 49.012 197.215 48.809 197.219 48.578 197.215 48.371 197.125 48.207 196.949 48.086 196.82 48.004 196.504 47.902 196.008 47.773 195.332 47.605 194.863 47.457 194.605 47.332 194.344 47.207 194.145 47.039 194.012 46.82 193.875 46.602 193.809 46.355 193.809 46.09 193.809 45.848 193.863 45.629 193.973 45.418 194.086 45.215 194.234 45.043 194.43 44.902 194.566 44.801 194.762 44.715 195.016 44.637 195.262 44.566 195.523 44.527 195.809 44.527 196.234 44.527 196.605 44.59 196.93 44.711 197.246 44.836 197.484 45.004 197.645 45.211 197.793 45.418 197.902 45.699 197.957 46.051L197.062 46.172C197.02 45.895 196.898 45.676 196.707 45.516 196.504 45.359 196.234 45.285 195.875 45.281 195.449 45.285 195.148 45.352 194.973 45.488 194.785 45.633 194.695 45.797 194.699 45.98 194.695 46.105 194.734 46.211 194.812 46.301 194.883 46.402 195 46.484 195.164 46.547 195.254 46.586 195.523 46.664 195.98 46.785 196.625 46.961 197.082 47.098 197.34 47.207 197.598 47.32 197.797 47.484 197.941 47.695 198.09 47.906 198.16 48.168 198.164 48.48 198.16 48.789 198.07 49.078 197.898 49.348 197.715 49.617 197.457 49.828 197.121 49.973 196.785 50.125 196.402 50.199 195.98 50.199 195.27 50.199 194.73 50.051 194.363 49.758 193.992 49.469 193.754 49.031 193.66 48.453ZM201.238 51.941C200.988 52.012 200.75 52.043 200.527 52.047 199.781 52.043 199.41 51.629 199.41 50.797V48.68H198.977V48.145H199.41V47.047H200.055V48.145H201.238V48.68H200.055V50.496C200.051 50.871 200.082 51.121 200.148 51.242 200.223 51.402 200.402 51.484 200.68 51.484 200.848 51.484 201.023 51.441 201.207 51.355H201.238ZM201.238 51.941"/>
<path stroke-width=".747377" stroke-linecap="butt" stroke-miterlimit="4" stroke-linejoin="miter" fill="none" stroke="#000000" d="M163.992 46.938C165.832 46.938 167.672 46.938 169.516 46.938"/>
<path d="M169.605 44.32 177.078 46.938 169.605 49.551ZM169.605 44.32"/>
<path stroke-width=".747377" stroke-linecap="butt" stroke-miterlimit="4" stroke-linejoin="miter" fill="none" stroke="#000000" d="M169.605 44.32 177.078 46.938 169.605 49.551ZM169.605 44.32"/>
<path stroke-width=".747377" stroke-linecap="butt" stroke-miterlimit="4" stroke-linejoin="miter" fill="none" stroke="#000000" d="M198.25 60.512C198.566 66.27 198.945 73.113 199.305 79.508"/>
<path d="M201.914 79.379 199.715 86.984 196.691 79.668ZM201.914 79.379"/>
<path stroke-width=".747377" stroke-linecap="butt" stroke-miterlimit="4" stroke-linejoin="miter" fill="none" stroke="#000000" d="M201.914 79.379 199.715 86.984 196.691 79.668ZM201.914 79.379"/>
<path stroke-width=".747377" stroke-linecap="butt" stroke-miterlimit="4" stroke-linejoin="miter" fill="none" stroke="#000000" d="M290.941 46.938C290.941 54.367 277.547 60.387 261.02 60.387 244.492 60.387 231.098 54.367 231.098 46.938 231.098 39.508 244.492 33.484 261.02 33.484 277.547 33.484 290.941 39.508 290.941 46.938ZM290.941 46.938"/>
<path d="M252.324 48.453 253.238 48.309C253.285 48.68 253.426 48.957 253.664 49.152 253.895 49.348 254.223 49.445 254.645 49.441 255.062 49.445 255.375 49.359 255.582 49.184 255.781 49.012 255.887 48.809 255.887 48.578 255.887 48.371 255.793 48.207 255.613 48.086 255.488 48.004 255.176 47.902 254.676 47.773 254 47.605 253.535 47.457 253.273 47.332 253.012 47.207 252.816 47.039 252.684 46.82 252.543 46.602 252.477 46.355 252.48 46.09 252.477 45.848 252.535 45.629 252.645 45.418 252.754 45.215 252.906 45.043 253.098 44.902 253.238 44.801 253.434 44.715 253.684 44.637 253.926 44.566 254.195 44.527 254.48 44.527 254.902 44.527 255.277 44.59 255.598 44.711 255.918 44.836 256.152 45.004 256.312 45.211 256.461 45.418 256.57 45.699 256.629 46.051L255.73 46.172C255.684 45.895 255.566 45.676 255.375 45.516 255.176 45.359 254.902 45.285 254.547 45.281 254.121 45.285 253.82 45.352 253.641 45.488 253.457 45.633 253.363 45.797 253.367 45.98 253.363 46.105 253.402 46.211 253.48 46.301 253.551 46.402 253.668 46.484 253.832 46.547 253.922 46.586 254.195 46.664 254.648 46.785 255.297 46.961 255.75 47.098 256.008 47.207 256.266 47.32 256.465 47.484 256.613 47.695 256.758 47.906 256.832 48.168 256.832 48.48 256.832 48.789 256.738 49.078 256.566 49.348 256.383 49.617 256.129 49.828 255.793 49.973 255.453 50.125 255.07 50.199 254.648 50.199 253.938 50.199 253.402 50.051 253.031 49.758 252.66 49.469 252.426 49.031 252.324 48.453ZM259.906 51.941C259.66 52.012 259.422 52.043 259.199 52.047 258.449 52.043 258.074 51.629 258.078 50.797V48.68H257.645V48.145H258.078V47.047H258.723V48.145H259.906V48.68H258.723V50.496C258.723 50.871 258.754 51.121 258.816 51.242 258.891 51.402 259.07 51.484 259.352 51.484 259.52 51.484 259.691 51.441 259.871 51.355H259.906ZM263.348 46.402V47.996H265.141V48.48H263.348V50.074H262.809V48.48H261.02V47.996H262.809V46.402ZM266.637 49.516H267.68V46.387L266.539 46.598V46.008L267.715 45.809H268.414V49.516H269.465V50.074H266.637ZM266.637 49.516"/>
<path stroke-width=".747377" stroke-linecap="butt" stroke-miterlimit="4" stroke-linejoin="miter" fill="none" stroke="#000000" d="M217.844 46.938C219.691 46.938 221.543 46.938 223.391 46.938"/>
<path d="M223.523 44.32 230.996 46.938 223.523 49.551ZM223.523 44.32"/>
<path stroke-width=".747377" stroke-linecap="butt" stroke-miterlimit="4" stroke-linejoin="miter" fill="none" stroke="#000000" d="M223.523 44.32 230.996 46.938 223.523 49.551ZM223.523 44.32"/>
<path stroke-width=".747377" stroke-linecap="butt" stroke-miterlimit="4" stroke-linejoin="miter" fill="none" stroke="#000000" d="M264.039 60.512C265.352 66.422 266.918 73.477 268.371 80.016"/>
<path d="M270.934 79.496 270.004 87.359 265.828 80.633ZM270.934 79.496"/>
<path stroke-width=".747377" stroke-linecap="butt" stroke-miterlimit="4" stroke-linejoin="miter" fill="none" stroke="#000000" d="M270.934 79.496 270.004 87.359 265.828 80.633ZM270.934 79.496"/>
</g>
</svg>
