<?xml version="1.0" encoding="UTF-8"?>
<svg xmlns="http://www.w3.org/2000/svg" xmlns:xlink="http://www.w3.org/1999/xlink" width="426" height="228" viewBox="0 0 426 228">
<path fill-rule="nonzero" fill="rgb(100%, 100%, 100%)" fill-opacity="1" d="M 0.570312 228 L 0.570312 0 L 425.429688 0 L 425.429688 228 Z M 0.570312 228 "/>
<path fill-rule="nonzero" fill="rgb(82.745098%, 82.745098%, 82.745098%)" fill-opacity="1" stroke-width="1" stroke-linecap="butt" stroke-linejoin="miter" stroke="rgb(82.745098%, 82.745098%, 82.745098%)" stroke-opacity="1" stroke-miterlimit="4" d="M 28.6767 -136.001235 L 28.6767 -212.801017 L 392.675992 -212.801017 L 392.675992 -136.001235 Z M 28.6767 -136.001235 " transform="matrix(0.996503, 0, 0, 0.996503, 4.556381, 224.013986)"/>
<path fill-rule="nonzero" fill="rgb(0%, 0%, 0%)" fill-opacity="1" d="M 172.472656 25.289062 L 173.714844 25.179688 C 173.773438 25.679688 173.910156 26.089844 174.128906 26.410156 C 174.339844 26.734375 174.675781 26.992188 175.132812 27.183594 C 175.585938 27.382812 176.097656 27.480469 176.667969 27.480469 C 177.167969 27.480469 177.613281 27.40625 178.003906 27.257812 C 178.386719 27.109375 178.675781 26.90625 178.863281 26.640625 C 179.050781 26.378906 179.144531 26.09375 179.148438 25.789062 C 179.144531 25.476562 179.054688 25.203125 178.875 24.964844 C 178.691406 24.734375 178.390625 24.535156 177.976562 24.375 C 177.707031 24.273438 177.109375 24.113281 176.195312 23.886719 C 175.277344 23.671875 174.636719 23.460938 174.269531 23.265625 C 173.785156 23.015625 173.433594 22.707031 173.203125 22.335938 C 172.964844 21.96875 172.847656 21.550781 172.851562 21.09375 C 172.847656 20.589844 172.992188 20.121094 173.28125 19.679688 C 173.570312 19.246094 173.984375 18.914062 174.535156 18.683594 C 175.082031 18.457031 175.695312 18.34375 176.367188 18.339844 C 177.101562 18.34375 177.757812 18.460938 178.324219 18.699219 C 178.890625 18.9375 179.320312 19.285156 179.628906 19.75 C 179.933594 20.21875 180.097656 20.742188 180.121094 21.324219 L 178.855469 21.421875 C 178.78125 20.789062 178.550781 20.316406 178.160156 19.988281 C 177.769531 19.667969 177.1875 19.503906 176.421875 19.503906 C 175.621094 19.503906 175.035156 19.652344 174.675781 19.945312 C 174.304688 20.242188 174.121094 20.59375 174.125 21.003906 C 174.121094 21.367188 174.25 21.65625 174.515625 21.886719 C 174.765625 22.121094 175.429688 22.363281 176.507812 22.601562 C 177.578125 22.847656 178.3125 23.058594 178.71875 23.238281 C 179.292969 23.507812 179.722656 23.84375 180.003906 24.257812 C 180.277344 24.671875 180.414062 25.144531 180.417969 25.679688 C 180.414062 26.210938 180.265625 26.710938 179.964844 27.175781 C 179.65625 27.648438 179.222656 28.015625 178.652344 28.273438 C 178.085938 28.535156 177.441406 28.664062 176.730469 28.667969 C 175.824219 28.664062 175.0625 28.535156 174.457031 28.273438 C 173.839844 28.011719 173.363281 27.613281 173.019531 27.082031 C 172.667969 26.554688 172.488281 25.957031 172.472656 25.289062 Z M 184.746094 27.398438 L 184.921875 28.480469 C 184.574219 28.554688 184.265625 28.589844 183.996094 28.589844 C 183.550781 28.589844 183.203125 28.519531 182.957031 28.378906 C 182.710938 28.238281 182.539062 28.058594 182.441406 27.828125 C 182.339844 27.597656 182.292969 27.113281 182.292969 26.378906 L 182.292969 22.214844 L 181.394531 22.214844 L 181.394531 21.265625 L 182.292969 21.265625 L 182.292969 19.46875 L 183.511719 18.734375 L 183.511719 21.265625 L 184.746094 21.265625 L 184.746094 22.214844 L 183.511719 22.214844 L 183.511719 26.445312 C 183.507812 26.800781 183.527344 27.027344 183.574219 27.121094 C 183.613281 27.222656 183.6875 27.300781 183.785156 27.359375 C 183.882812 27.417969 184.023438 27.445312 184.207031 27.445312 C 184.339844 27.445312 184.519531 27.429688 184.746094 27.398438 Z M 190.664062 27.605469 C 190.210938 27.996094 189.769531 28.265625 189.351562 28.421875 C 188.929688 28.582031 188.480469 28.660156 188.003906 28.660156 C 187.203125 28.660156 186.59375 28.46875 186.167969 28.082031 C 185.742188 27.695312 185.527344 27.195312 185.53125 26.589844 C 185.527344 26.238281 185.609375 25.917969 185.773438 25.621094 C 185.933594 25.328125 186.140625 25.09375 186.402344 24.914062 C 186.664062 24.742188 186.957031 24.605469 187.285156 24.511719 C 187.523438 24.453125 187.890625 24.390625 188.375 24.328125 C 189.363281 24.210938 190.09375 24.070312 190.5625 23.902344 C 190.5625 23.738281 190.5625 23.636719 190.566406 23.585938 C 190.5625 23.089844 190.449219 22.734375 190.222656 22.53125 C 189.90625 22.253906 189.4375 22.117188 188.824219 22.113281 C 188.242188 22.117188 187.820312 22.21875 187.546875 22.417969 C 187.269531 22.621094 187.066406 22.980469 186.941406 23.492188 L 185.742188 23.328125 C 185.847656 22.816406 186.023438 22.402344 186.277344 22.085938 C 186.523438 21.769531 186.886719 21.527344 187.359375 21.359375 C 187.832031 21.191406 188.375 21.105469 189.003906 21.101562 C 189.617188 21.105469 190.121094 21.179688 190.507812 21.320312 C 190.890625 21.46875 191.175781 21.648438 191.363281 21.867188 C 191.539062 22.089844 191.667969 22.367188 191.742188 22.699219 C 191.777344 22.910156 191.796875 23.289062 191.800781 23.828125 L 191.800781 25.464844 C 191.796875 26.609375 191.824219 27.328125 191.878906 27.628906 C 191.933594 27.933594 192.035156 28.21875 192.191406 28.496094 L 190.910156 28.496094 C 190.78125 28.242188 190.699219 27.949219 190.664062 27.605469 Z M 190.5625 24.863281 C 190.117188 25.046875 189.445312 25.203125 188.558594 25.328125 C 188.054688 25.402344 187.699219 25.484375 187.488281 25.574219 C 187.277344 25.667969 187.113281 25.800781 187.007812 25.972656 C 186.890625 26.148438 186.835938 26.34375 186.839844 26.554688 C 186.835938 26.886719 186.960938 27.15625 187.207031 27.371094 C 187.453125 27.59375 187.816406 27.703125 188.292969 27.699219 C 188.765625 27.703125 189.1875 27.601562 189.554688 27.390625 C 189.921875 27.1875 190.191406 26.90625 190.367188 26.542969 C 190.492188 26.265625 190.558594 25.859375 190.5625 25.316406 Z M 196.382812 27.398438 L 196.5625 28.480469 C 196.210938 28.554688 195.90625 28.589844 195.636719 28.589844 C 195.1875 28.589844 194.84375 28.519531 194.597656 28.378906 C 194.351562 28.238281 194.175781 28.058594 194.078125 27.828125 C 193.976562 27.597656 193.929688 27.113281 193.929688 26.378906 L 193.929688 22.214844 L 193.03125 22.214844 L 193.03125 21.265625 L 193.929688 21.265625 L 193.929688 19.46875 L 195.148438 18.734375 L 195.148438 21.265625 L 196.382812 21.265625 L 196.382812 22.214844 L 195.148438 22.214844 L 195.148438 26.445312 C 195.144531 26.800781 195.164062 27.027344 195.210938 27.121094 C 195.25 27.222656 195.324219 27.300781 195.425781 27.359375 C 195.523438 27.417969 195.664062 27.445312 195.847656 27.445312 C 195.976562 27.445312 196.15625 27.429688 196.382812 27.398438 Z M 202.53125 26.167969 L 203.796875 26.324219 C 203.597656 27.0625 203.226562 27.640625 202.683594 28.050781 C 202.144531 28.457031 201.457031 28.660156 200.617188 28.660156 C 199.558594 28.660156 198.71875 28.335938 198.101562 27.683594 C 197.476562 27.039062 197.164062 26.121094 197.167969 24.9375 C 197.164062 23.726562 197.480469 22.78125 198.109375 22.109375 C 198.734375 21.441406 199.546875 21.105469 200.546875 21.101562 C 201.515625 21.105469 202.304688 21.4375 202.917969 22.089844 C 203.53125 22.75 203.832031 23.675781 203.835938 24.863281 C 203.832031 24.9375 203.832031 25.046875 203.832031 25.191406 L 198.4375 25.191406 C 198.480469 25.988281 198.707031 26.601562 199.113281 27.023438 C 199.515625 27.445312 200.019531 27.65625 200.621094 27.652344 C 201.070312 27.65625 201.457031 27.539062 201.773438 27.296875 C 202.09375 27.0625 202.34375 26.6875 202.53125 26.167969 Z M 198.503906 24.183594 L 202.546875 24.183594 C 202.492188 23.582031 202.335938 23.125 202.082031 22.8125 C 201.6875 22.347656 201.183594 22.109375 200.5625 22.105469 C 200 22.109375 199.523438 22.300781 199.144531 22.671875 C 198.753906 23.054688 198.542969 23.558594 198.503906 24.183594 Z M 209.214844 31.269531 L 209.214844 21.265625 L 210.332031 21.265625 L 210.332031 22.203125 C 210.589844 21.835938 210.886719 21.5625 211.222656 21.378906 C 211.550781 21.199219 211.953125 21.105469 212.429688 21.101562 C 213.042969 21.105469 213.589844 21.265625 214.0625 21.574219 C 214.535156 21.894531 214.890625 22.34375 215.132812 22.921875 C 215.371094 23.503906 215.492188 24.136719 215.496094 24.828125 C 215.492188 25.570312 215.359375 26.234375 215.09375 26.828125 C 214.828125 27.417969 214.441406 27.875 213.9375 28.1875 C 213.429688 28.503906 212.894531 28.660156 212.34375 28.660156 C 211.929688 28.660156 211.5625 28.574219 211.242188 28.402344 C 210.914062 28.230469 210.644531 28.015625 210.4375 27.75 L 210.4375 31.269531 Z M 210.328125 24.917969 C 210.328125 25.855469 210.511719 26.542969 210.890625 26.988281 C 211.265625 27.433594 211.71875 27.65625 212.257812 27.652344 C 212.796875 27.65625 213.265625 27.425781 213.660156 26.964844 C 214.042969 26.503906 214.238281 25.789062 214.242188 24.820312 C 214.238281 23.898438 214.046875 23.210938 213.675781 22.746094 C 213.292969 22.292969 212.839844 22.0625 212.3125 22.058594 C 211.789062 22.0625 211.328125 22.308594 210.925781 22.789062 C 210.523438 23.28125 210.328125 23.988281 210.328125 24.917969 Z M 216.964844 28.496094 L 216.964844 21.265625 L 218.066406 21.265625 L 218.066406 22.359375 C 218.34375 21.851562 218.601562 21.511719 218.84375 21.347656 C 219.078125 21.1875 219.34375 21.105469 219.632812 21.101562 C 220.042969 21.105469 220.460938 21.238281 220.890625 21.492188 L 220.46875 22.628906 C 220.167969 22.457031 219.867188 22.367188 219.570312 22.367188 C 219.304688 22.367188 219.0625 22.449219 218.847656 22.605469 C 218.632812 22.769531 218.480469 22.996094 218.390625 23.28125 C 218.253906 23.71875 218.1875 24.195312 218.191406 24.710938 L 218.191406 28.496094 Z M 221.164062 24.878906 C 221.160156 23.542969 221.535156 22.550781 222.28125 21.902344 C 222.898438 21.375 223.660156 21.105469 224.554688 21.101562 C 225.550781 21.105469 226.363281 21.433594 226.996094 22.078125 C 227.625 22.730469 227.941406 23.632812 227.941406 24.777344 C 227.941406 25.710938 227.800781 26.441406 227.519531 26.976562 C 227.238281 27.507812 226.832031 27.921875 226.300781 28.214844 C 225.765625 28.511719 225.183594 28.660156 224.554688 28.660156 C 223.542969 28.660156 222.71875 28.335938 222.097656 27.6875 C 221.472656 27.042969 221.160156 26.105469 221.164062 24.878906 Z M 222.425781 24.878906 C 222.421875 25.8125 222.625 26.503906 223.027344 26.964844 C 223.429688 27.425781 223.9375 27.65625 224.554688 27.652344 C 225.160156 27.65625 225.667969 27.425781 226.070312 26.960938 C 226.476562 26.5 226.679688 25.792969 226.679688 24.835938 C 226.679688 23.945312 226.472656 23.269531 226.066406 22.804688 C 225.660156 22.347656 225.15625 22.117188 224.554688 22.113281 C 223.9375 22.117188 223.429688 22.347656 223.027344 22.800781 C 222.625 23.265625 222.421875 23.957031 222.425781 24.878906 Z M 234.097656 25.847656 L 235.304688 26.003906 C 235.167969 26.839844 234.832031 27.488281 234.292969 27.957031 C 233.75 28.425781 233.082031 28.660156 232.292969 28.660156 C 231.300781 28.660156 230.503906 28.335938 229.90625 27.691406 C 229.304688 27.046875 229 26.117188 229.003906 24.90625 C 229 24.128906 229.132812 23.445312 229.390625 22.855469 C 229.648438 22.273438 230.042969 21.835938 230.570312 21.539062 C 231.101562 21.253906 231.675781 21.105469 232.300781 21.101562 C 233.085938 21.105469 233.730469 21.304688 234.226562 21.695312 C 234.726562 22.097656 235.042969 22.660156 235.1875 23.390625 L 233.996094 23.574219 C 233.878906 23.089844 233.679688 22.722656 233.394531 22.476562 C 233.101562 22.234375 232.753906 22.109375 232.347656 22.105469 C 231.726562 22.109375 231.226562 22.332031 230.839844 22.769531 C 230.457031 23.21875 230.261719 23.917969 230.265625 24.871094 C 230.261719 25.851562 230.449219 26.558594 230.820312 26.996094 C 231.191406 27.4375 231.675781 27.65625 232.28125 27.652344 C 232.757812 27.65625 233.160156 27.507812 233.484375 27.210938 C 233.808594 26.917969 234.011719 26.460938 234.097656 25.847656 Z M 241.304688 26.167969 L 242.574219 26.324219 C 242.371094 27.0625 242 27.640625 241.460938 28.050781 C 240.917969 28.457031 240.230469 28.660156 239.390625 28.660156 C 238.332031 28.660156 237.492188 28.335938 236.875 27.683594 C 236.25 27.039062 235.941406 26.121094 235.945312 24.9375 C 235.941406 23.726562 236.253906 22.78125 236.882812 22.109375 C 237.507812 21.441406 238.320312 21.105469 239.324219 21.101562 C 240.289062 21.105469 241.078125 21.4375 241.691406 22.089844 C 242.304688 22.75 242.609375 23.675781 242.613281 24.863281 C 242.609375 24.9375 242.609375 25.046875 242.609375 25.191406 L 237.210938 25.191406 C 237.253906 25.988281 237.480469 26.601562 237.886719 27.023438 C 238.289062 27.445312 238.792969 27.65625 239.394531 27.652344 C 239.84375 27.65625 240.230469 27.539062 240.546875 27.296875 C 240.867188 27.0625 241.117188 26.6875 241.304688 26.167969 Z M 237.277344 24.183594 L 241.320312 24.183594 C 241.265625 23.582031 241.109375 23.125 240.855469 22.8125 C 240.464844 22.347656 239.957031 22.109375 239.339844 22.105469 C 238.773438 22.109375 238.296875 22.300781 237.917969 22.671875 C 237.527344 23.054688 237.316406 23.558594 237.277344 24.183594 Z M 243.625 26.335938 L 244.839844 26.144531 C 244.902344 26.636719 245.089844 27.011719 245.40625 27.265625 C 245.714844 27.527344 246.148438 27.65625 246.710938 27.652344 C 247.269531 27.65625 247.6875 27.542969 247.964844 27.308594 C 248.234375 27.082031 248.367188 26.8125 248.371094 26.5 C 248.367188 26.222656 248.25 26.003906 248.011719 25.847656 C 247.839844 25.738281 247.421875 25.601562 246.757812 25.429688 C 245.859375 25.207031 245.234375 25.007812 244.890625 24.839844 C 244.539062 24.679688 244.273438 24.453125 244.097656 24.15625 C 243.914062 23.867188 243.828125 23.542969 243.832031 23.183594 C 243.828125 22.863281 243.898438 22.570312 244.046875 22.289062 C 244.195312 22.015625 244.394531 21.785156 244.652344 21.601562 C 244.839844 21.46875 245.097656 21.351562 245.433594 21.25 C 245.761719 21.15625 246.113281 21.105469 246.492188 21.101562 C 247.058594 21.105469 247.554688 21.1875 247.988281 21.347656 C 248.410156 21.511719 248.726562 21.734375 248.9375 22.011719 C 249.140625 22.292969 249.285156 22.664062 249.363281 23.128906 L 248.164062 23.292969 C 248.105469 22.925781 247.945312 22.632812 247.6875 22.421875 C 247.421875 22.214844 247.058594 22.109375 246.582031 22.105469 C 246.019531 22.109375 245.613281 22.203125 245.375 22.386719 C 245.128906 22.578125 245.007812 22.792969 245.011719 23.039062 C 245.007812 23.203125 245.058594 23.347656 245.164062 23.46875 C 245.257812 23.605469 245.414062 23.714844 245.632812 23.792969 C 245.753906 23.84375 246.113281 23.949219 246.71875 24.109375 C 247.582031 24.34375 248.191406 24.53125 248.53125 24.679688 C 248.875 24.828125 249.144531 25.042969 249.339844 25.324219 C 249.53125 25.609375 249.628906 25.953125 249.632812 26.371094 C 249.628906 26.785156 249.507812 27.167969 249.277344 27.527344 C 249.035156 27.890625 248.691406 28.167969 248.246094 28.363281 C 247.792969 28.5625 247.28125 28.660156 246.71875 28.660156 C 245.773438 28.660156 245.054688 28.464844 244.566406 28.078125 C 244.070312 27.6875 243.757812 27.105469 243.625 26.335938 Z M 250.597656 26.335938 L 251.8125 26.144531 C 251.875 26.636719 252.066406 27.011719 252.382812 27.265625 C 252.691406 27.527344 253.125 27.65625 253.6875 27.652344 C 254.246094 27.65625 254.664062 27.542969 254.941406 27.308594 C 255.207031 27.082031 255.34375 26.8125 255.347656 26.5 C 255.34375 26.222656 255.222656 26.003906 254.984375 25.847656 C 254.816406 25.738281 254.398438 25.601562 253.734375 25.429688 C 252.832031 25.207031 252.210938 25.007812 251.863281 24.839844 C 251.515625 24.679688 251.25 24.453125 251.074219 24.15625 C 250.890625 23.867188 250.800781 23.542969 250.804688 23.183594 C 250.800781 22.863281 250.875 22.570312 251.023438 22.289062 C 251.171875 22.015625 251.371094 21.785156 251.628906 21.601562 C 251.8125 21.46875 252.074219 21.351562 252.410156 21.25 C 252.738281 21.15625 253.089844 21.105469 253.46875 21.101562 C 254.03125 21.105469 254.53125 21.1875 254.964844 21.347656 C 255.386719 21.511719 255.703125 21.734375 255.914062 22.011719 C 256.113281 22.292969 256.257812 22.664062 256.335938 23.128906 L 255.136719 23.292969 C 255.078125 22.925781 254.921875 22.632812 254.664062 22.421875 C 254.398438 22.214844 254.03125 22.109375 253.558594 22.105469 C 252.992188 22.109375 252.589844 22.203125 252.351562 22.386719 C 252.105469 22.578125 251.984375 22.792969 251.988281 23.039062 C 251.984375 23.203125 252.035156 23.347656 252.140625 23.46875 C 252.234375 23.605469 252.390625 23.714844 252.609375 23.792969 C 252.730469 23.84375 253.089844 23.949219 253.695312 24.109375 C 254.558594 24.34375 255.164062 24.53125 255.507812 24.679688 C 255.851562 24.828125 256.117188 25.042969 256.3125 25.324219 C 256.507812 25.609375 256.605469 25.953125 256.609375 26.371094 C 256.605469 26.785156 256.484375 27.167969 256.25 27.527344 C 256.011719 27.890625 255.667969 28.167969 255.21875 28.363281 C 254.769531 28.5625 254.257812 28.660156 253.695312 28.660156 C 252.746094 28.660156 252.03125 28.464844 251.542969 28.078125 C 251.046875 27.6875 250.730469 27.105469 250.597656 26.335938 Z M 171.84375 15.871094 "/>
<path fill="none" stroke-width="1" stroke-linecap="butt" stroke-linejoin="miter" stroke="rgb(0%, 0%, 0%)" stroke-opacity="1" stroke-miterlimit="4" d="M 103.712502 -90.000549 C 103.712502 -80.059541 85.786542 -72.000111 63.674069 -72.000111 C 41.565516 -72.000111 23.639556 -80.059541 23.639556 -90.000549 C 23.639556 -99.941558 41.565516 -108.000988 63.674069 -108.000988 C 85.786542 -108.000988 103.712502 -99.941558 103.712502 -90.000549 Z M 103.712502 -90.000549 " transform="matrix(0.996503, 0, 0, 0.996503, 4.556381, 224.013986)"/>
<path fill-rule="nonzero" fill="rgb(0%, 0%, 0%)" fill-opacity="1" d="M 56.261719 138.511719 L 56.261719 137.515625 L 60.867188 132.230469 C 60.339844 132.261719 59.882812 132.277344 59.484375 132.273438 L 56.535156 132.273438 L 56.535156 131.28125 L 62.445312 131.28125 L 62.445312 132.089844 L 58.53125 136.679688 L 57.773438 137.515625 C 58.316406 137.480469 58.835938 137.460938 59.320312 137.457031 L 62.664062 137.457031 L 62.664062 138.511719 Z M 66.527344 141 C 66.191406 141.09375 65.875 141.140625 65.582031 141.144531 C 64.585938 141.140625 64.085938 140.585938 64.089844 139.480469 L 64.089844 136.652344 L 63.507812 136.652344 L 63.507812 135.945312 L 64.089844 135.945312 L 64.089844 134.480469 L 64.945312 134.480469 L 64.945312 135.945312 L 66.527344 135.945312 L 66.527344 136.652344 L 64.945312 136.652344 L 64.945312 139.078125 C 64.941406 139.574219 64.984375 139.90625 65.070312 140.074219 C 65.171875 140.285156 65.410156 140.394531 65.78125 140.394531 C 66.003906 140.394531 66.238281 140.335938 66.480469 140.222656 L 66.527344 140.222656 Z M 68.003906 135.742188 L 73.503906 135.742188 L 73.503906 136.386719 L 68.003906 136.386719 Z M 76.261719 137.734375 L 79.148438 137.734375 L 79.148438 138.511719 L 75.074219 138.511719 L 75.074219 137.765625 C 75.226562 137.625 75.449219 137.425781 75.734375 137.171875 C 77.296875 135.789062 78.078125 134.886719 78.078125 134.453125 C 78.078125 134.15625 77.957031 133.917969 77.726562 133.730469 C 77.484375 133.550781 77.175781 133.457031 76.796875 133.453125 C 76.554688 133.457031 76.292969 133.496094 76.019531 133.574219 C 75.738281 133.652344 75.441406 133.773438 75.117188 133.929688 L 75.117188 133.089844 C 75.464844 132.964844 75.789062 132.871094 76.09375 132.808594 C 76.394531 132.746094 76.675781 132.710938 76.933594 132.710938 C 77.59375 132.710938 78.117188 132.859375 78.515625 133.160156 C 78.910156 133.460938 79.105469 133.855469 79.105469 134.34375 C 79.105469 134.976562 78.355469 135.9375 76.851562 137.226562 C 76.597656 137.445312 76.398438 137.617188 76.261719 137.734375 Z M 55.988281 124.554688 "/>
<path fill="none" stroke-width="1" stroke-linecap="butt" stroke-linejoin="miter" stroke="rgb(0%, 0%, 0%)" stroke-opacity="1" stroke-miterlimit="4" d="M 99.529908 -17.998794 C 99.529908 -8.057785 77.209678 0.00164468 49.675906 0.00164468 C 22.142133 0.00164468 -0.178097 -8.057785 -0.178097 -17.998794 C -0.178097 -27.939803 22.142133 -35.999233 49.675906 -35.999233 C 77.209678 -35.999233 99.529908 -27.939803 99.529908 -17.998794 Z M 99.529908 -17.998794 " transform="matrix(0.996503, 0, 0, 0.996503, 4.556381, 224.013986)"/>
<path fill-rule="nonzero" fill="rgb(0%, 0%, 0%)" fill-opacity="1" d="M 43.847656 213.046875 L 43.710938 211.894531 C 43.976562 211.964844 44.210938 212 44.417969 212.003906 C 44.679688 212 44.898438 211.953125 45.066406 211.867188 C 45.226562 211.777344 45.363281 211.652344 45.472656 211.488281 C 45.546875 211.363281 45.671875 211.054688 45.84375 210.574219 C 45.867188 210.503906 45.902344 210.40625 45.953125 210.277344 L 43.210938 203.027344 L 44.53125 203.027344 L 46.035156 207.21875 C 46.226562 207.75 46.402344 208.308594 46.5625 208.890625 C 46.699219 208.332031 46.863281 207.78125 47.0625 207.246094 L 48.613281 203.027344 L 49.835938 203.027344 L 47.085938 210.386719 C 46.785156 211.175781 46.558594 211.726562 46.398438 212.023438 C 46.175781 212.429688 45.925781 212.726562 45.648438 212.914062 C 45.367188 213.097656 45.027344 213.191406 44.636719 213.195312 C 44.398438 213.191406 44.136719 213.140625 43.847656 213.046875 Z M 51.5 205.363281 L 50.667969 205.363281 L 50.667969 204.410156 L 51.5 204.410156 Z M 51.5 211.433594 C 51.5 212.023438 51.417969 212.441406 51.257812 212.6875 C 51.054688 212.988281 50.722656 213.144531 50.265625 213.148438 C 50.050781 213.144531 49.835938 213.113281 49.617188 213.058594 L 49.777344 212.351562 C 49.957031 212.398438 50.085938 212.421875 50.167969 212.421875 C 50.402344 212.421875 50.550781 212.300781 50.621094 212.058594 C 50.648438 211.953125 50.664062 211.738281 50.667969 211.414062 L 50.667969 206.269531 L 51.5 206.269531 Z M 53.113281 207.488281 L 58.609375 207.488281 L 58.609375 208.136719 L 53.113281 208.136719 Z M 61.367188 209.484375 L 64.257812 209.484375 L 64.257812 210.261719 L 60.179688 210.261719 L 60.179688 209.515625 C 60.332031 209.375 60.554688 209.175781 60.84375 208.917969 C 62.402344 207.535156 63.1875 206.632812 63.1875 206.203125 C 63.1875 205.90625 63.066406 205.664062 62.832031 205.476562 C 62.589844 205.296875 62.285156 205.203125 61.902344 205.199219 C 61.660156 205.203125 61.398438 205.242188 61.128906 205.320312 C 60.847656 205.398438 60.546875 205.519531 60.222656 205.675781 L 60.222656 204.839844 C 60.570312 204.714844 60.898438 204.621094 61.203125 204.554688 C 61.5 204.492188 61.78125 204.457031 62.042969 204.457031 C 62.699219 204.457031 63.226562 204.609375 63.621094 204.910156 C 64.015625 205.207031 64.214844 205.601562 64.214844 206.09375 C 64.214844 206.722656 63.464844 207.683594 61.960938 208.972656 C 61.703125 209.195312 61.503906 209.367188 61.367188 209.484375 Z M 42.984375 197.3125 "/>
<path fill="none" stroke-width="1" stroke-linecap="butt" stroke-linejoin="miter" stroke="rgb(0%, 0%, 0%)" stroke-opacity="1" stroke-miterlimit="4" d="M 60.142189 -71.831553 C 58.644765 -64.132759 56.865105 -54.975741 55.203044 -46.418477 " transform="matrix(0.996503, 0, 0, 0.996503, 4.556381, 224.013986)"/>
<path fill-rule="nonzero" fill="rgb(0%, 0%, 0%)" fill-opacity="1" stroke-width="1" stroke-linecap="butt" stroke-linejoin="miter" stroke="rgb(0%, 0%, 0%)" stroke-opacity="1" stroke-miterlimit="4" d="M 58.601646 -45.560006 L 53.254826 -36.414748 L 51.729963 -46.896711 Z M 58.601646 -45.560006 " transform="matrix(0.996503, 0, 0, 0.996503, 4.556381, 224.013986)"/>
<path fill="none" stroke-width="1" stroke-linecap="butt" stroke-linejoin="miter" stroke="rgb(0%, 0%, 0%)" stroke-opacity="1" stroke-miterlimit="4" d="M 210.711626 -90.000549 C 210.711626 -80.059541 192.785666 -72.000111 170.677113 -72.000111 C 148.56464 -72.000111 130.638681 -80.059541 130.638681 -90.000549 C 130.638681 -99.941558 148.56464 -108.000988 170.677113 -108.000988 C 192.785666 -108.000988 210.711626 -99.941558 210.711626 -90.000549 Z M 210.711626 -90.000549 " transform="matrix(0.996503, 0, 0, 0.996503, 4.556381, 224.013986)"/>
<path fill-rule="nonzero" fill="rgb(0%, 0%, 0%)" fill-opacity="1" d="M 162.886719 138.511719 L 162.886719 137.515625 L 167.492188 132.230469 C 166.96875 132.261719 166.507812 132.277344 166.109375 132.273438 L 163.160156 132.273438 L 163.160156 131.28125 L 169.074219 131.28125 L 169.074219 132.089844 L 165.15625 136.679688 L 164.398438 137.515625 C 164.941406 137.480469 165.460938 137.460938 165.945312 137.457031 L 169.289062 137.457031 L 169.289062 138.511719 Z M 173.152344 141 C 172.816406 141.09375 172.503906 141.140625 172.207031 141.144531 C 171.210938 141.140625 170.710938 140.585938 170.714844 139.480469 L 170.714844 136.652344 L 170.136719 136.652344 L 170.136719 135.945312 L 170.714844 135.945312 L 170.714844 134.480469 L 171.570312 134.480469 L 171.570312 135.945312 L 173.152344 135.945312 L 173.152344 136.652344 L 171.570312 136.652344 L 171.570312 139.078125 C 171.566406 139.574219 171.609375 139.90625 171.695312 140.074219 C 171.796875 140.285156 172.035156 140.394531 172.410156 140.394531 C 172.628906 140.394531 172.863281 140.335938 173.105469 140.222656 L 173.152344 140.222656 Z M 174.632812 135.742188 L 180.128906 135.742188 L 180.128906 136.386719 L 174.632812 136.386719 Z M 182.125 137.765625 L 183.515625 137.765625 L 183.515625 133.601562 L 181.996094 133.882812 L 181.996094 133.089844 L 183.5625 132.824219 L 184.496094 132.824219 L 184.496094 137.765625 L 185.894531 137.765625 L 185.894531 138.511719 L 182.125 138.511719 Z M 162.613281 124.554688 "/>
<path fill="none" stroke-width="1" stroke-linecap="butt" stroke-linejoin="miter" stroke="rgb(0%, 0%, 0%)" stroke-opacity="1" stroke-miterlimit="4" d="M 216.528841 -17.998794 C 216.528841 -8.057785 194.20861 0.00164468 166.674838 0.00164468 C 139.144986 0.00164468 116.824755 -8.057785 116.824755 -17.998794 C 116.824755 -27.939803 139.144986 -35.999233 166.674838 -35.999233 C 194.20861 -35.999233 216.528841 -27.939803 216.528841 -17.998794 Z M 216.528841 -17.998794 " transform="matrix(0.996503, 0, 0, 0.996503, 4.556381, 224.013986)"/>
<path fill-rule="nonzero" fill="rgb(0%, 0%, 0%)" fill-opacity="1" d="M 160.4375 213.046875 L 160.304688 211.894531 C 160.566406 211.964844 160.800781 212 161.007812 212.003906 C 161.273438 212 161.488281 211.953125 161.65625 211.867188 C 161.816406 211.777344 161.953125 211.652344 162.0625 211.488281 C 162.136719 211.363281 162.261719 211.054688 162.4375 210.574219 C 162.460938 210.503906 162.496094 210.40625 162.546875 210.277344 L 159.800781 203.027344 L 161.121094 203.027344 L 162.625 207.21875 C 162.816406 207.75 162.992188 208.308594 163.152344 208.890625 C 163.289062 208.332031 163.457031 207.78125 163.65625 207.246094 L 165.203125 203.027344 L 166.425781 203.027344 L 163.679688 210.386719 C 163.378906 211.175781 163.148438 211.726562 162.988281 212.023438 C 162.765625 212.429688 162.519531 212.726562 162.238281 212.914062 C 161.957031 213.097656 161.617188 213.191406 161.230469 213.195312 C 160.988281 213.191406 160.726562 213.140625 160.4375 213.046875 Z M 168.09375 205.363281 L 167.257812 205.363281 L 167.257812 204.410156 L 168.09375 204.410156 Z M 168.09375 211.433594 C 168.09375 212.023438 168.011719 212.441406 167.851562 212.6875 C 167.644531 212.988281 167.3125 213.144531 166.859375 213.148438 C 166.640625 213.144531 166.425781 213.113281 166.207031 213.058594 L 166.367188 212.351562 C 166.546875 212.398438 166.675781 212.421875 166.761719 212.421875 C 166.996094 212.421875 167.140625 212.300781 167.210938 212.058594 C 167.238281 211.953125 167.253906 211.738281 167.257812 211.414062 L 167.257812 206.269531 L 168.09375 206.269531 Z M 169.703125 207.488281 L 175.199219 207.488281 L 175.199219 208.136719 L 169.703125 208.136719 Z M 177.195312 209.515625 L 178.585938 209.515625 L 178.585938 205.347656 L 177.066406 205.628906 L 177.066406 204.839844 L 178.632812 204.574219 L 179.566406 204.574219 L 179.566406 209.515625 L 180.964844 209.515625 L 180.964844 210.261719 L 177.195312 210.261719 Z M 159.574219 197.3125 "/>
<path fill="none" stroke-width="1" stroke-linecap="butt" stroke-linejoin="miter" stroke="rgb(0%, 0%, 0%)" stroke-opacity="1" stroke-miterlimit="4" d="M 169.665765 -71.831553 C 169.238489 -64.132759 168.728895 -54.975741 168.25458 -46.418477 " transform="matrix(0.996503, 0, 0, 0.996503, 4.556381, 224.013986)"/>
<path fill-rule="nonzero" fill="rgb(0%, 0%, 0%)" fill-opacity="1" stroke-width="1" stroke-linecap="butt" stroke-linejoin="miter" stroke="rgb(0%, 0%, 0%)" stroke-opacity="1" stroke-miterlimit="4" d="M 171.747261 -46.202879 L 167.697947 -36.414748 L 164.757979 -46.590955 Z M 171.747261 -46.202879 " transform="matrix(0.996503, 0, 0, 0.996503, 4.556381, 224.013986)"/>
<path fill="none" stroke-width="1" stroke-linecap="butt" stroke-linejoin="miter" stroke="rgb(0%, 0%, 0%)" stroke-opacity="1" stroke-miterlimit="4" d="M 290.674812 -90.000549 C 290.674812 -80.059541 278.585667 -72.000111 263.674154 -72.000111 C 248.762641 -72.000111 236.677416 -80.059541 236.677416 -90.000549 C 236.677416 -99.941558 248.762641 -108.000988 263.674154 -108.000988 C 278.585667 -108.000988 290.674812 -99.941558 290.674812 -90.000549 Z M 290.674812 -90.000549 " transform="matrix(0.996503, 0, 0, 0.996503, 4.556381, 224.013986)"/>
<path fill-rule="nonzero" fill="rgb(0%, 0%, 0%)" fill-opacity="1" d="M 262.039062 138.511719 L 262.039062 137.515625 L 266.644531 132.230469 C 266.117188 132.261719 265.660156 132.277344 265.261719 132.273438 L 262.3125 132.273438 L 262.3125 131.28125 L 268.226562 131.28125 L 268.226562 132.089844 L 264.308594 136.679688 L 263.550781 137.515625 C 264.09375 137.480469 264.613281 137.460938 265.097656 137.457031 L 268.441406 137.457031 L 268.441406 138.511719 Z M 272.304688 141 C 271.96875 141.09375 271.65625 141.140625 271.359375 141.144531 C 270.363281 141.140625 269.863281 140.585938 269.867188 139.480469 L 269.867188 136.652344 L 269.289062 136.652344 L 269.289062 135.945312 L 269.867188 135.945312 L 269.867188 134.480469 L 270.722656 134.480469 L 270.722656 135.945312 L 272.304688 135.945312 L 272.304688 136.652344 L 270.722656 136.652344 L 270.722656 139.078125 C 270.71875 139.574219 270.761719 139.90625 270.847656 140.074219 C 270.949219 140.285156 271.1875 140.394531 271.5625 140.394531 C 271.78125 140.394531 272.015625 140.335938 272.257812 140.222656 L 272.304688 140.222656 Z M 261.765625 124.554688 "/>
<path fill="none" stroke-width="1" stroke-linecap="butt" stroke-linejoin="miter" stroke="rgb(0%, 0%, 0%)" stroke-opacity="1" stroke-miterlimit="4" d="M 301.325333 -17.998794 C 301.325333 -8.057785 286.260942 0.00164468 267.676429 0.00164468 C 249.091917 0.00164468 234.027525 -8.057785 234.027525 -17.998794 C 234.027525 -27.939803 249.091917 -35.999233 267.676429 -35.999233 C 286.260942 -35.999233 301.325333 -27.939803 301.325333 -17.998794 Z M 301.325333 -17.998794 " transform="matrix(0.996503, 0, 0, 0.996503, 4.556381, 224.013986)"/>
<path fill-rule="nonzero" fill="rgb(0%, 0%, 0%)" fill-opacity="1" d="M 267.5625 213.050781 L 267.425781 211.898438 C 267.691406 211.96875 267.925781 212.003906 268.132812 212.007812 C 268.394531 212.003906 268.613281 211.957031 268.78125 211.871094 C 268.941406 211.78125 269.078125 211.65625 269.1875 211.492188 C 269.261719 211.367188 269.386719 211.058594 269.558594 210.578125 C 269.582031 210.507812 269.617188 210.410156 269.667969 210.28125 L 266.925781 203.03125 L 268.246094 203.03125 L 269.75 207.222656 C 269.941406 207.753906 270.117188 208.3125 270.277344 208.894531 C 270.414062 208.335938 270.578125 207.785156 270.777344 207.25 L 272.328125 203.03125 L 273.550781 203.03125 L 270.800781 210.390625 C 270.503906 211.179688 270.273438 211.730469 270.113281 212.027344 C 269.890625 212.433594 269.640625 212.730469 269.363281 212.917969 C 269.082031 213.101562 268.742188 213.195312 268.351562 213.199219 C 268.113281 213.195312 267.851562 213.144531 267.5625 213.050781 Z M 275.214844 205.367188 L 274.382812 205.367188 L 274.382812 204.414062 L 275.214844 204.414062 Z M 275.214844 211.4375 C 275.214844 212.027344 275.132812 212.445312 274.976562 212.691406 C 274.769531 212.992188 274.4375 213.148438 273.980469 213.152344 C 273.765625 213.148438 273.550781 213.117188 273.332031 213.0625 L 273.492188 212.355469 C 273.671875 212.402344 273.800781 212.425781 273.886719 212.425781 C 274.117188 212.425781 274.265625 212.304688 274.335938 212.0625 C 274.363281 211.957031 274.378906 211.742188 274.382812 211.417969 L 274.382812 206.273438 L 275.214844 206.273438 Z M 266.699219 197.632812 "/>
<path fill="none" stroke-width="1" stroke-linecap="butt" stroke-linejoin="miter" stroke="rgb(0%, 0%, 0%)" stroke-opacity="1" stroke-miterlimit="4" d="M 264.685503 -71.831553 C 265.112778 -64.132759 265.622372 -54.975741 266.096687 -46.418477 " transform="matrix(0.996503, 0, 0, 0.996503, 4.556381, 224.013986)"/>
<path fill-rule="nonzero" fill="rgb(0%, 0%, 0%)" fill-opacity="1" stroke-width="1" stroke-linecap="butt" stroke-linejoin="miter" stroke="rgb(0%, 0%, 0%)" stroke-opacity="1" stroke-miterlimit="4" d="M 269.593288 -46.590955 L 266.653321 -36.414748 L 262.604006 -46.202879 Z M 269.593288 -46.590955 " transform="matrix(0.996503, 0, 0, 0.996503, 4.556381, 224.013986)"/>
<path fill="none" stroke-width="1" stroke-linecap="butt" stroke-linejoin="miter" stroke="rgb(0%, 0%, 0%)" stroke-opacity="1" stroke-miterlimit="4" d="M 400.711903 -90.000549 C 400.711903 -80.059541 382.785943 -72.000111 360.67739 -72.000111 C 338.564917 -72.000111 320.638957 -80.059541 320.638957 -90.000549 C 320.638957 -99.941558 338.564917 -108.000988 360.67739 -108.000988 C 382.785943 -108.000988 400.711903 -99.941558 400.711903 -90.000549 Z M 400.711903 -90.000549 " transform="matrix(0.996503, 0, 0, 0.996503, 4.556381, 224.013986)"/>
<path fill-rule="nonzero" fill="rgb(0%, 0%, 0%)" fill-opacity="1" d="M 352.222656 138.511719 L 352.222656 137.515625 L 356.828125 132.230469 C 356.300781 132.261719 355.84375 132.277344 355.445312 132.273438 L 352.496094 132.273438 L 352.496094 131.28125 L 358.410156 131.28125 L 358.410156 132.089844 L 354.492188 136.679688 L 353.734375 137.515625 C 354.277344 137.480469 354.796875 137.460938 355.28125 137.457031 L 358.625 137.457031 L 358.625 138.511719 Z M 362.488281 141 C 362.152344 141.09375 361.839844 141.140625 361.542969 141.144531 C 360.546875 141.140625 360.046875 140.585938 360.050781 139.480469 L 360.050781 136.652344 L 359.472656 136.652344 L 359.472656 135.945312 L 360.050781 135.945312 L 360.050781 134.480469 L 360.90625 134.480469 L 360.90625 135.945312 L 362.488281 135.945312 L 362.488281 136.652344 L 360.90625 136.652344 L 360.90625 139.078125 C 360.902344 139.574219 360.945312 139.90625 361.03125 140.074219 C 361.132812 140.285156 361.371094 140.394531 361.746094 140.394531 C 361.964844 140.394531 362.199219 140.335938 362.441406 140.222656 L 362.488281 140.222656 Z M 367.074219 133.617188 L 367.074219 135.742188 L 369.464844 135.742188 L 369.464844 136.386719 L 367.074219 136.386719 L 367.074219 138.511719 L 366.355469 138.511719 L 366.355469 136.386719 L 363.96875 136.386719 L 363.96875 135.742188 L 366.355469 135.742188 L 366.355469 133.617188 Z M 371.460938 137.765625 L 372.851562 137.765625 L 372.851562 133.601562 L 371.332031 133.882812 L 371.332031 133.089844 L 372.898438 132.824219 L 373.832031 132.824219 L 373.832031 137.765625 L 375.226562 137.765625 L 375.226562 138.511719 L 371.460938 138.511719 Z M 351.949219 124.554688 "/>
<path fill="none" stroke-width="1" stroke-linecap="butt" stroke-linejoin="miter" stroke="rgb(0%, 0%, 0%)" stroke-opacity="1" stroke-miterlimit="4" d="M 418.528103 -17.998794 C 418.528103 -8.057785 396.207873 0.00164468 368.674101 0.00164468 C 341.144248 0.00164468 318.824018 -8.057785 318.824018 -17.998794 C 318.824018 -27.939803 341.144248 -35.999233 368.674101 -35.999233 C 396.207873 -35.999233 418.528103 -27.939803 418.528103 -17.998794 Z M 418.528103 -17.998794 " transform="matrix(0.996503, 0, 0, 0.996503, 4.556381, 224.013986)"/>
<path fill-rule="nonzero" fill="rgb(0%, 0%, 0%)" fill-opacity="1" d="M 361.734375 213.046875 L 361.597656 211.894531 C 361.859375 211.964844 362.09375 212 362.300781 212.003906 C 362.566406 212 362.785156 211.953125 362.953125 211.867188 C 363.109375 211.777344 363.246094 211.652344 363.355469 211.488281 C 363.429688 211.363281 363.554688 211.054688 363.730469 210.574219 C 363.753906 210.503906 363.789062 210.40625 363.839844 210.277344 L 361.09375 203.027344 L 362.414062 203.027344 L 363.921875 207.21875 C 364.109375 207.75 364.285156 208.308594 364.445312 208.890625 C 364.582031 208.332031 364.75 207.78125 364.949219 207.246094 L 366.496094 203.027344 L 367.71875 203.027344 L 364.972656 210.386719 C 364.671875 211.175781 364.441406 211.726562 364.28125 212.023438 C 364.0625 212.429688 363.8125 212.726562 363.53125 212.914062 C 363.25 213.097656 362.914062 213.191406 362.523438 213.195312 C 362.28125 213.191406 362.019531 213.140625 361.734375 213.046875 Z M 369.386719 205.363281 L 368.550781 205.363281 L 368.550781 204.410156 L 369.386719 204.410156 Z M 369.386719 211.433594 C 369.386719 212.023438 369.304688 212.441406 369.144531 212.6875 C 368.9375 212.988281 368.605469 213.144531 368.152344 213.148438 C 367.933594 213.144531 367.71875 213.113281 367.5 213.058594 L 367.660156 212.351562 C 367.839844 212.398438 367.96875 212.421875 368.054688 212.421875 C 368.289062 212.421875 368.4375 212.300781 368.507812 212.058594 C 368.53125 211.953125 368.546875 211.738281 368.550781 211.414062 L 368.550781 206.269531 L 369.386719 206.269531 Z M 374.101562 205.363281 L 374.101562 207.488281 L 376.492188 207.488281 L 376.492188 208.136719 L 374.101562 208.136719 L 374.101562 210.261719 L 373.386719 210.261719 L 373.386719 208.136719 L 370.996094 208.136719 L 370.996094 207.488281 L 373.386719 207.488281 L 373.386719 205.363281 Z M 378.492188 209.515625 L 379.878906 209.515625 L 379.878906 205.347656 L 378.363281 205.628906 L 378.363281 204.839844 L 379.925781 204.574219 L 380.859375 204.574219 L 380.859375 209.515625 L 382.257812 209.515625 L 382.257812 210.261719 L 378.492188 210.261719 Z M 360.867188 197.3125 "/>
<path fill="none" stroke-width="1" stroke-linecap="butt" stroke-linejoin="miter" stroke="rgb(0%, 0%, 0%)" stroke-opacity="1" stroke-miterlimit="4" d="M 362.696167 -71.831553 C 363.550718 -64.132759 364.565986 -54.975741 365.518536 -46.418477 " transform="matrix(0.996503, 0, 0, 0.996503, 4.556381, 224.013986)"/>
<path fill-rule="nonzero" fill="rgb(0%, 0%, 0%)" fill-opacity="1" stroke-width="1" stroke-linecap="butt" stroke-linejoin="miter" stroke="rgb(0%, 0%, 0%)" stroke-opacity="1" stroke-miterlimit="4" d="M 369.003377 -46.739913 L 366.631803 -36.414748 L 362.045455 -45.963762 Z M 369.003377 -46.739913 " transform="matrix(0.996503, 0, 0, 0.996503, 4.556381, 224.013986)"/>
<path fill="none" stroke-width="1" stroke-linecap="butt" stroke-linejoin="miter" stroke="rgb(0%, 0%, 0%)" stroke-opacity="1" stroke-miterlimit="4" d="M 116.711076 -161.998385 C 116.711076 -152.057376 98.789037 -144.001866 76.676564 -144.001866 C 54.564091 -144.001866 36.638131 -152.057376 36.638131 -161.998385 C 36.638131 -171.939394 54.564091 -179.998824 76.676564 -179.998824 C 98.789037 -179.998824 116.711076 -171.939394 116.711076 -161.998385 Z M 116.711076 -161.998385 " transform="matrix(0.996503, 0, 0, 0.996503, 4.556381, 224.013986)"/>
<path fill-rule="nonzero" fill="rgb(0%, 0%, 0%)" fill-opacity="1" d="M 69.371094 64.605469 L 70.585938 64.414062 C 70.648438 64.90625 70.839844 65.277344 71.15625 65.535156 C 71.460938 65.796875 71.898438 65.925781 72.457031 65.921875 C 73.019531 65.925781 73.4375 65.8125 73.710938 65.578125 C 73.980469 65.351562 74.117188 65.078125 74.121094 64.769531 C 74.117188 64.492188 73.996094 64.273438 73.757812 64.113281 C 73.585938 64.003906 73.171875 63.867188 72.503906 63.699219 C 71.605469 63.476562 70.984375 63.277344 70.636719 63.109375 C 70.285156 62.945312 70.023438 62.71875 69.847656 62.425781 C 69.664062 62.136719 69.574219 61.808594 69.578125 61.453125 C 69.574219 61.132812 69.648438 60.835938 69.796875 60.554688 C 69.945312 60.285156 70.144531 60.054688 70.398438 59.871094 C 70.585938 59.734375 70.847656 59.617188 71.183594 59.515625 C 71.507812 59.421875 71.863281 59.371094 72.242188 59.367188 C 72.804688 59.371094 73.304688 59.453125 73.734375 59.613281 C 74.160156 59.78125 74.476562 60.003906 74.683594 60.28125 C 74.886719 60.558594 75.03125 60.933594 75.109375 61.398438 L 73.910156 61.5625 C 73.851562 61.195312 73.691406 60.902344 73.4375 60.6875 C 73.171875 60.480469 72.804688 60.378906 72.332031 60.375 C 71.765625 60.378906 71.359375 60.46875 71.125 60.652344 C 70.878906 60.84375 70.757812 61.0625 70.761719 61.308594 C 70.757812 61.472656 70.808594 61.613281 70.914062 61.734375 C 71.007812 61.871094 71.164062 61.980469 71.378906 62.0625 C 71.5 62.113281 71.863281 62.21875 72.464844 62.378906 C 73.332031 62.613281 73.9375 62.796875 74.28125 62.945312 C 74.621094 63.09375 74.890625 63.3125 75.085938 63.59375 C 75.28125 63.875 75.378906 64.222656 75.382812 64.640625 C 75.378906 65.050781 75.257812 65.4375 75.023438 65.796875 C 74.78125 66.15625 74.441406 66.4375 73.992188 66.632812 C 73.539062 66.832031 73.03125 66.929688 72.464844 66.929688 C 71.519531 66.929688 70.804688 66.734375 70.3125 66.34375 C 69.820312 65.957031 69.503906 65.375 69.371094 64.605469 Z M 79.480469 69.253906 C 79.144531 69.347656 78.832031 69.390625 78.535156 69.394531 C 77.539062 69.390625 77.039062 68.835938 77.042969 67.730469 L 77.042969 64.90625 L 76.464844 64.90625 L 76.464844 64.195312 L 77.042969 64.195312 L 77.042969 62.730469 L 77.902344 62.730469 L 77.902344 64.195312 L 79.480469 64.195312 L 79.480469 64.90625 L 77.902344 64.90625 L 77.902344 67.328125 C 77.898438 67.828125 77.941406 68.160156 78.023438 68.324219 C 78.125 68.535156 78.363281 68.644531 78.738281 68.644531 C 78.960938 68.644531 79.191406 68.585938 79.433594 68.472656 L 79.480469 68.472656 Z M 80.960938 63.992188 L 86.457031 63.992188 L 86.457031 64.640625 L 80.960938 64.640625 Z M 89.214844 65.988281 L 92.105469 65.988281 L 92.105469 66.765625 L 88.027344 66.765625 L 88.027344 66.019531 C 88.179688 65.878906 88.402344 65.679688 88.691406 65.421875 C 90.25 64.039062 91.035156 63.136719 91.035156 62.703125 C 91.035156 62.410156 90.914062 62.167969 90.679688 61.980469 C 90.4375 61.800781 90.132812 61.707031 89.75 61.703125 C 89.507812 61.707031 89.246094 61.746094 88.976562 61.824219 C 88.695312 61.902344 88.394531 62.023438 88.070312 62.179688 L 88.070312 61.34375 C 88.417969 61.21875 88.746094 61.125 89.050781 61.058594 C 89.347656 60.996094 89.628906 60.960938 89.890625 60.960938 C 90.546875 60.960938 91.074219 61.113281 91.46875 61.414062 C 91.863281 61.710938 92.0625 62.105469 92.0625 62.597656 C 92.0625 63.226562 91.3125 64.1875 89.808594 65.476562 C 89.550781 65.699219 89.351562 65.871094 89.214844 65.988281 Z M 68.945312 52.804688 "/>
<path fill="none" stroke-width="1" stroke-linecap="butt" stroke-linejoin="miter" stroke="rgb(0%, 0%, 0%)" stroke-opacity="1" stroke-miterlimit="4" d="M 73.39556 -143.833308 C 72.003976 -136.130594 70.353674 -126.973576 68.805292 -118.416312 " transform="matrix(0.996503, 0, 0, 0.996503, 4.556381, 224.013986)"/>
<path fill-rule="nonzero" fill="rgb(0%, 0%, 0%)" fill-opacity="1" stroke-width="1" stroke-linecap="butt" stroke-linejoin="miter" stroke="rgb(0%, 0%, 0%)" stroke-opacity="1" stroke-miterlimit="4" d="M 72.223494 -117.632321 L 67.002112 -108.412584 L 65.332211 -118.874947 Z M 72.223494 -117.632321 " transform="matrix(0.996503, 0, 0, 0.996503, 4.556381, 224.013986)"/>
<path fill="none" stroke-width="1" stroke-linecap="butt" stroke-linejoin="miter" stroke="rgb(0%, 0%, 0%)" stroke-opacity="1" stroke-miterlimit="4" d="M 214.709981 -161.998385 C 214.709981 -152.057376 196.787941 -144.001866 174.675469 -144.001866 C 152.562996 -144.001866 134.640956 -152.057376 134.640956 -161.998385 C 134.640956 -171.939394 152.562996 -179.998824 174.675469 -179.998824 C 196.787941 -179.998824 214.709981 -171.939394 214.709981 -161.998385 Z M 214.709981 -161.998385 " transform="matrix(0.996503, 0, 0, 0.996503, 4.556381, 224.013986)"/>
<path fill-rule="nonzero" fill="rgb(0%, 0%, 0%)" fill-opacity="1" d="M 167.027344 64.605469 L 168.242188 64.414062 C 168.304688 64.90625 168.496094 65.277344 168.8125 65.535156 C 169.121094 65.796875 169.554688 65.925781 170.117188 65.921875 C 170.675781 65.925781 171.09375 65.8125 171.371094 65.578125 C 171.636719 65.351562 171.773438 65.078125 171.777344 64.769531 C 171.773438 64.492188 171.652344 64.273438 171.417969 64.113281 C 171.246094 64.003906 170.828125 63.867188 170.164062 63.699219 C 169.261719 63.476562 168.640625 63.277344 168.292969 63.109375 C 167.945312 62.945312 167.679688 62.71875 167.503906 62.425781 C 167.320312 62.136719 167.230469 61.808594 167.234375 61.453125 C 167.230469 61.132812 167.304688 60.835938 167.453125 60.554688 C 167.601562 60.285156 167.800781 60.054688 168.058594 59.871094 C 168.242188 59.734375 168.503906 59.617188 168.839844 59.515625 C 169.167969 59.421875 169.519531 59.371094 169.898438 59.367188 C 170.460938 59.371094 170.960938 59.453125 171.394531 59.613281 C 171.816406 59.78125 172.132812 60.003906 172.34375 60.28125 C 172.546875 60.558594 172.6875 60.933594 172.765625 61.398438 L 171.566406 61.5625 C 171.507812 61.195312 171.351562 60.902344 171.09375 60.6875 C 170.828125 60.480469 170.460938 60.378906 169.988281 60.375 C 169.421875 60.378906 169.019531 60.46875 168.78125 60.652344 C 168.535156 60.84375 168.414062 61.0625 168.417969 61.308594 C 168.414062 61.472656 168.464844 61.613281 168.570312 61.734375 C 168.664062 61.871094 168.820312 61.980469 169.039062 62.0625 C 169.160156 62.113281 169.519531 62.21875 170.125 62.378906 C 170.988281 62.613281 171.59375 62.796875 171.9375 62.945312 C 172.28125 63.09375 172.550781 63.3125 172.742188 63.59375 C 172.9375 63.875 173.035156 64.222656 173.039062 64.640625 C 173.035156 65.050781 172.914062 65.4375 172.679688 65.796875 C 172.441406 66.15625 172.097656 66.4375 171.648438 66.632812 C 171.199219 66.832031 170.6875 66.929688 170.125 66.929688 C 169.179688 66.929688 168.460938 66.734375 167.972656 66.34375 C 167.476562 65.957031 167.160156 65.375 167.027344 64.605469 Z M 177.136719 69.253906 C 176.804688 69.347656 176.488281 69.390625 176.191406 69.394531 C 175.195312 69.390625 174.699219 68.835938 174.703125 67.730469 L 174.703125 64.90625 L 174.121094 64.90625 L 174.121094 64.195312 L 174.703125 64.195312 L 174.703125 62.730469 L 175.558594 62.730469 L 175.558594 64.195312 L 177.136719 64.195312 L 177.136719 64.90625 L 175.558594 64.90625 L 175.558594 67.328125 C 175.554688 67.828125 175.597656 68.160156 175.683594 68.324219 C 175.785156 68.535156 176.019531 68.644531 176.394531 68.644531 C 176.617188 68.644531 176.851562 68.585938 177.089844 68.472656 L 177.136719 68.472656 Z M 178.617188 63.992188 L 184.113281 63.992188 L 184.113281 64.640625 L 178.617188 64.640625 Z M 186.109375 66.019531 L 187.5 66.019531 L 187.5 61.851562 L 185.980469 62.132812 L 185.980469 61.34375 L 187.546875 61.078125 L 188.480469 61.078125 L 188.480469 66.019531 L 189.878906 66.019531 L 189.878906 66.765625 L 186.109375 66.765625 Z M 166.601562 52.804688 "/>
<path fill="none" stroke-width="1" stroke-linecap="butt" stroke-linejoin="miter" stroke="rgb(0%, 0%, 0%)" stroke-opacity="1" stroke-miterlimit="4" d="M 116.871795 -161.998385 C 119.349207 -161.998385 121.826619 -161.998385 124.300112 -161.998385 " transform="matrix(0.996503, 0, 0, 0.996503, 4.556381, 224.013986)"/>
<path fill-rule="nonzero" fill="rgb(0%, 0%, 0%)" fill-opacity="1" stroke-width="1" stroke-linecap="butt" stroke-linejoin="miter" stroke="rgb(0%, 0%, 0%)" stroke-opacity="1" stroke-miterlimit="4" d="M 124.48435 -165.498906 L 134.484158 -161.998385 L 124.48435 -158.501784 Z M 124.48435 -165.498906 " transform="matrix(0.996503, 0, 0, 0.996503, 4.556381, 224.013986)"/>
<path fill="none" stroke-width="1" stroke-linecap="butt" stroke-linejoin="miter" stroke="rgb(0%, 0%, 0%)" stroke-opacity="1" stroke-miterlimit="4" d="M 173.66804 -143.833308 C 173.236845 -136.130594 172.73117 -126.973576 172.252936 -118.416312 " transform="matrix(0.996503, 0, 0, 0.996503, 4.556381, 224.013986)"/>
<path fill-rule="nonzero" fill="rgb(0%, 0%, 0%)" fill-opacity="1" stroke-width="1" stroke-linecap="butt" stroke-linejoin="miter" stroke="rgb(0%, 0%, 0%)" stroke-opacity="1" stroke-miterlimit="4" d="M 175.749537 -118.204634 L 171.700222 -108.412584 L 168.760255 -118.59271 Z M 175.749537 -118.204634 " transform="matrix(0.996503, 0, 0, 0.996503, 4.556381, 224.013986)"/>
<path fill="none" stroke-width="1" stroke-linecap="butt" stroke-linejoin="miter" stroke="rgb(0%, 0%, 0%)" stroke-opacity="1" stroke-miterlimit="4" d="M 286.676457 -161.998385 C 286.676457 -152.057376 274.587312 -144.001866 259.675799 -144.001866 C 244.764285 -144.001866 232.67514 -152.057376 232.67514 -161.998385 C 232.67514 -171.939394 244.764285 -179.998824 259.675799 -179.998824 C 274.587312 -179.998824 286.676457 -171.939394 286.676457 -161.998385 Z M 286.676457 -161.998385 " transform="matrix(0.996503, 0, 0, 0.996503, 4.556381, 224.013986)"/>
<path fill-rule="nonzero" fill="rgb(0%, 0%, 0%)" fill-opacity="1" d="M 258.210938 64.605469 L 259.421875 64.414062 C 259.484375 64.90625 259.675781 65.277344 259.992188 65.535156 C 260.300781 65.796875 260.734375 65.925781 261.296875 65.921875 C 261.855469 65.925781 262.273438 65.8125 262.550781 65.578125 C 262.816406 65.351562 262.953125 65.078125 262.957031 64.769531 C 262.953125 64.492188 262.832031 64.273438 262.597656 64.113281 C 262.425781 64.003906 262.007812 63.867188 261.34375 63.699219 C 260.445312 63.476562 259.820312 63.277344 259.472656 63.109375 C 259.125 62.945312 258.859375 62.71875 258.683594 62.425781 C 258.5 62.136719 258.410156 61.808594 258.414062 61.453125 C 258.410156 61.132812 258.484375 60.835938 258.632812 60.554688 C 258.78125 60.285156 258.980469 60.054688 259.238281 59.871094 C 259.421875 59.734375 259.683594 59.617188 260.019531 59.515625 C 260.347656 59.421875 260.699219 59.371094 261.078125 59.367188 C 261.644531 59.371094 262.140625 59.453125 262.574219 59.613281 C 262.996094 59.78125 263.3125 60.003906 263.523438 60.28125 C 263.726562 60.558594 263.871094 60.933594 263.945312 61.398438 L 262.75 61.5625 C 262.691406 61.195312 262.53125 60.902344 262.273438 60.6875 C 262.007812 60.480469 261.644531 60.378906 261.167969 60.375 C 260.601562 60.378906 260.199219 60.46875 259.960938 60.652344 C 259.714844 60.84375 259.59375 61.0625 259.597656 61.308594 C 259.59375 61.472656 259.644531 61.613281 259.75 61.734375 C 259.84375 61.871094 260 61.980469 260.21875 62.0625 C 260.339844 62.113281 260.699219 62.21875 261.304688 62.378906 C 262.167969 62.613281 262.773438 62.796875 263.117188 62.945312 C 263.460938 63.09375 263.730469 63.3125 263.921875 63.59375 C 264.117188 63.875 264.214844 64.222656 264.21875 64.640625 C 264.214844 65.050781 264.09375 65.4375 263.863281 65.796875 C 263.621094 66.15625 263.277344 66.4375 262.828125 66.632812 C 262.378906 66.832031 261.867188 66.929688 261.304688 66.929688 C 260.359375 66.929688 259.640625 66.734375 259.152344 66.34375 C 258.65625 65.957031 258.339844 65.375 258.210938 64.605469 Z M 268.320312 69.253906 C 267.984375 69.347656 267.667969 69.390625 267.371094 69.394531 C 266.375 69.390625 265.878906 68.835938 265.882812 67.730469 L 265.882812 64.90625 L 265.300781 64.90625 L 265.300781 64.195312 L 265.882812 64.195312 L 265.882812 62.730469 L 266.738281 62.730469 L 266.738281 64.195312 L 268.320312 64.195312 L 268.320312 64.90625 L 266.738281 64.90625 L 266.738281 67.328125 C 266.734375 67.828125 266.777344 68.160156 266.863281 68.324219 C 266.964844 68.535156 267.203125 68.644531 267.574219 68.644531 C 267.796875 68.644531 268.03125 68.585938 268.273438 68.472656 L 268.320312 68.472656 Z M 257.78125 52.804688 "/>
<path fill="none" stroke-width="1" stroke-linecap="butt" stroke-linejoin="miter" stroke="rgb(0%, 0%, 0%)" stroke-opacity="1" stroke-miterlimit="4" d="M 214.8511 -161.998385 C 217.312832 -161.998385 219.774565 -161.998385 222.240217 -161.998385 " transform="matrix(0.996503, 0, 0, 0.996503, 4.556381, 224.013986)"/>
<path fill-rule="nonzero" fill="rgb(0%, 0%, 0%)" fill-opacity="1" stroke-width="1" stroke-linecap="butt" stroke-linejoin="miter" stroke="rgb(0%, 0%, 0%)" stroke-opacity="1" stroke-miterlimit="4" d="M 222.361736 -165.498906 L 232.361544 -161.998385 L 222.361736 -158.501784 Z M 222.361736 -165.498906 " transform="matrix(0.996503, 0, 0, 0.996503, 4.556381, 224.013986)"/>
<path fill="none" stroke-width="1" stroke-linecap="butt" stroke-linejoin="miter" stroke="rgb(0%, 0%, 0%)" stroke-opacity="1" stroke-miterlimit="4" d="M 260.687147 -143.833308 C 261.114423 -136.130594 261.620097 -126.973576 262.098332 -118.416312 " transform="matrix(0.996503, 0, 0, 0.996503, 4.556381, 224.013986)"/>
<path fill-rule="nonzero" fill="rgb(0%, 0%, 0%)" fill-opacity="1" stroke-width="1" stroke-linecap="butt" stroke-linejoin="miter" stroke="rgb(0%, 0%, 0%)" stroke-opacity="1" stroke-miterlimit="4" d="M 265.591013 -118.59271 L 262.651045 -108.412584 L 258.601731 -118.204634 Z M 265.591013 -118.59271 " transform="matrix(0.996503, 0, 0, 0.996503, 4.556381, 224.013986)"/>
<path fill="none" stroke-width="1" stroke-linecap="butt" stroke-linejoin="miter" stroke="rgb(0%, 0%, 0%)" stroke-opacity="1" stroke-miterlimit="4" d="M 384.710641 -161.998385 C 384.710641 -152.057376 366.788602 -144.001866 344.676129 -144.001866 C 322.563656 -144.001866 304.641616 -152.057376 304.641616 -161.998385 C 304.641616 -171.939394 322.563656 -179.998824 344.676129 -179.998824 C 366.788602 -179.998824 384.710641 -171.939394 384.710641 -161.998385 Z M 384.710641 -161.998385 " transform="matrix(0.996503, 0, 0, 0.996503, 4.556381, 224.013986)"/>
<path fill-rule="nonzero" fill="rgb(0%, 0%, 0%)" fill-opacity="1" d="M 336.433594 64.605469 L 337.648438 64.414062 C 337.710938 64.90625 337.902344 65.277344 338.21875 65.535156 C 338.523438 65.796875 338.960938 65.925781 339.523438 65.921875 C 340.082031 65.925781 340.5 65.8125 340.773438 65.578125 C 341.042969 65.351562 341.179688 65.078125 341.183594 64.769531 C 341.179688 64.492188 341.058594 64.273438 340.820312 64.113281 C 340.652344 64.003906 340.234375 63.867188 339.570312 63.699219 C 338.667969 63.476562 338.046875 63.277344 337.699219 63.109375 C 337.351562 62.945312 337.085938 62.71875 336.910156 62.425781 C 336.726562 62.136719 336.636719 61.808594 336.640625 61.453125 C 336.636719 61.132812 336.710938 60.835938 336.859375 60.554688 C 337.007812 60.285156 337.207031 60.054688 337.460938 59.871094 C 337.648438 59.734375 337.910156 59.617188 338.246094 59.515625 C 338.570312 59.421875 338.925781 59.371094 339.304688 59.367188 C 339.867188 59.371094 340.367188 59.453125 340.796875 59.613281 C 341.222656 59.78125 341.539062 60.003906 341.75 60.28125 C 341.949219 60.558594 342.09375 60.933594 342.171875 61.398438 L 340.972656 61.5625 C 340.914062 61.195312 340.753906 60.902344 340.5 60.6875 C 340.234375 60.480469 339.867188 60.378906 339.394531 60.375 C 338.828125 60.378906 338.425781 60.46875 338.1875 60.652344 C 337.941406 60.84375 337.820312 61.0625 337.824219 61.308594 C 337.820312 61.472656 337.871094 61.613281 337.976562 61.734375 C 338.070312 61.871094 338.226562 61.980469 338.445312 62.0625 C 338.5625 62.113281 338.925781 62.21875 339.53125 62.378906 C 340.394531 62.613281 341 62.796875 341.34375 62.945312 C 341.6875 63.09375 341.953125 63.3125 342.148438 63.59375 C 342.34375 63.875 342.441406 64.222656 342.445312 64.640625 C 342.441406 65.050781 342.320312 65.4375 342.085938 65.796875 C 341.84375 66.15625 341.503906 66.4375 341.054688 66.632812 C 340.605469 66.832031 340.09375 66.929688 339.53125 66.929688 C 338.582031 66.929688 337.867188 66.734375 337.375 66.34375 C 336.882812 65.957031 336.566406 65.375 336.433594 64.605469 Z M 346.542969 69.253906 C 346.210938 69.347656 345.894531 69.390625 345.597656 69.394531 C 344.601562 69.390625 344.101562 68.835938 344.105469 67.730469 L 344.105469 64.90625 L 343.527344 64.90625 L 343.527344 64.195312 L 344.105469 64.195312 L 344.105469 62.730469 L 344.964844 62.730469 L 344.964844 64.195312 L 346.542969 64.195312 L 346.542969 64.90625 L 344.964844 64.90625 L 344.964844 67.328125 C 344.960938 67.828125 345.003906 68.160156 345.089844 68.324219 C 345.1875 68.535156 345.425781 68.644531 345.800781 68.644531 C 346.023438 68.644531 346.257812 68.585938 346.496094 68.472656 L 346.542969 68.472656 Z M 351.128906 61.867188 L 351.128906 63.992188 L 353.519531 63.992188 L 353.519531 64.640625 L 351.128906 64.640625 L 351.128906 66.765625 L 350.414062 66.765625 L 350.414062 64.640625 L 348.023438 64.640625 L 348.023438 63.992188 L 350.414062 63.992188 L 350.414062 61.867188 Z M 355.515625 66.019531 L 356.90625 66.019531 L 356.90625 61.851562 L 355.386719 62.132812 L 355.386719 61.34375 L 356.953125 61.078125 L 357.886719 61.078125 L 357.886719 66.019531 L 359.285156 66.019531 L 359.285156 66.765625 L 355.515625 66.765625 Z M 336.007812 52.804688 "/>
<path fill="none" stroke-width="1" stroke-linecap="butt" stroke-linejoin="miter" stroke="rgb(0%, 0%, 0%)" stroke-opacity="1" stroke-miterlimit="4" d="M 286.903814 -161.998385 C 289.377307 -161.998385 291.854719 -161.998385 294.328211 -161.998385 " transform="matrix(0.996503, 0, 0, 0.996503, 4.556381, 224.013986)"/>
<path fill-rule="nonzero" fill="rgb(0%, 0%, 0%)" fill-opacity="1" stroke-width="1" stroke-linecap="butt" stroke-linejoin="miter" stroke="rgb(0%, 0%, 0%)" stroke-opacity="1" stroke-miterlimit="4" d="M 294.504609 -165.498906 L 304.504418 -161.998385 L 294.504609 -158.501784 Z M 294.504609 -165.498906 " transform="matrix(0.996503, 0, 0, 0.996503, 4.556381, 224.013986)"/>
<path fill="none" stroke-width="1" stroke-linecap="butt" stroke-linejoin="miter" stroke="rgb(0%, 0%, 0%)" stroke-opacity="1" stroke-miterlimit="4" d="M 348.713684 -143.833308 C 350.469824 -135.926756 352.567001 -126.487502 354.511299 -117.73816 " transform="matrix(0.996503, 0, 0, 0.996503, 4.556381, 224.013986)"/>
<path fill-rule="nonzero" fill="rgb(0%, 0%, 0%)" fill-opacity="1" stroke-width="1" stroke-linecap="butt" stroke-linejoin="miter" stroke="rgb(0%, 0%, 0%)" stroke-opacity="1" stroke-miterlimit="4" d="M 357.941261 -118.435912 L 356.694714 -107.914749 L 351.108777 -116.914969 Z M 357.941261 -118.435912 " transform="matrix(0.996503, 0, 0, 0.996503, 4.556381, 224.013986)"/>
</svg>
